<svg width="926" height="623" viewBox="0 0 926 623" fill="none" xmlns="http://www.w3.org/2000/svg">
<path d="M298.194 441L114.069 441L114.069 608.061L298.194 608.061L298.194 441Z" fill="#4F97CA"/>
<g opacity="0.3">
<path d="M298.194 441L114.069 441L114.069 608.061L298.194 608.061L298.194 441Z" fill="black"/>
</g>
<path d="M222.392 441L38.2675 441L38.2675 608.061L222.392 608.061L222.392 441Z" fill="#4F97CA"/>
<path d="M38.2676 441L-1.8135e-06 501.851L176.876 501.851L222.392 441L38.2676 441Z" fill="#4F97CA"/>
<g opacity="0.3">
<path d="M38.2676 441L-1.8135e-06 501.851L176.876 501.851L222.392 441L38.2676 441Z" fill="black"/>
</g>
<path d="M222.392 441C222.392 441 222.392 441.105 222.218 441.314L221.606 442.188L219.161 445.541C216.978 448.51 213.921 452.772 209.887 458.134C201.87 468.945 190.535 484.175 177.208 502.113L177.086 502.27L176.876 502.27L126.453 502.27L37.0276 502.13L9.93805 501.991L2.56748 501.903L9.93805 501.816L37.0276 501.676L126.453 501.537L176.876 501.537L176.545 501.694L209.485 457.924L218.952 445.471L221.484 442.188L222.148 441.349L222.392 441Z" fill="#263238"/>
<path d="M224.104 441L272.712 501.851L349.037 501.851L298.212 441L224.104 441Z" fill="#4F97CA"/>
<path d="M191.285 513.947L56.3291 540.498L65.884 589.065L200.84 562.514L191.285 513.947Z" fill="#FAFAFA"/>
<path d="M200.874 562.457L200.682 561.601C200.559 560.99 200.385 560.169 200.158 559.086L198.184 549.48C196.437 541.131 194.062 529.027 191.023 513.937L191.39 514.181L56.4664 540.887L56.8158 540.363C60.1518 557.287 63.3654 573.687 66.3521 588.935L65.8456 588.586L162.449 569.793L190.639 564.361L198.219 562.929L200.193 562.562L200.874 562.457C200.678 562.537 200.472 562.589 200.263 562.614L198.341 563.016L190.883 564.535L162.833 570.194L66.0202 589.407L65.5836 589.494L65.4962 589.075L55.925 540.502L55.8376 540.048L56.2918 539.961L191.268 513.553L191.565 513.553L191.565 513.867C194.481 529.062 196.804 541.236 198.446 549.655C199.232 553.794 199.826 557.008 200.193 559.208C200.385 560.274 200.542 561.095 200.647 561.671C200.736 561.929 200.812 562.191 200.874 562.457Z" fill="#263238"/>
<path d="M88.8825 561.671L82.6298 562.894L81.9661 566.038L79.5732 566.509L82.7346 552.904L85.0226 552.449L93.1267 563.837L90.699 564.309L88.8825 561.671ZM87.7472 559.925L84.2541 554.93L82.9965 560.851L87.7472 559.925Z" fill="#263238"/>
<path d="M92.2187 551.017L97.6157 549.987C101.685 549.183 104.934 551.139 105.685 554.895C106.436 558.65 104.148 561.689 100.078 562.492L94.629 563.558L92.2187 551.017ZM99.6417 560.501C100.234 560.417 100.803 560.213 101.313 559.902C101.824 559.59 102.265 559.177 102.61 558.689C102.955 558.2 103.196 557.646 103.319 557.061C103.442 556.476 103.444 555.871 103.324 555.285C103.205 554.699 102.967 554.144 102.625 553.653C102.283 553.163 101.844 552.747 101.335 552.433C100.827 552.118 100.259 551.91 99.6677 551.823C99.0761 551.736 98.4729 551.771 97.8951 551.925L94.8735 552.537L96.6201 561.095L99.6417 560.501Z" fill="#263238"/>
<path d="M107.31 554.545C106.983 553.214 107.063 551.815 107.539 550.53C108.015 549.244 108.864 548.131 109.979 547.332C111.093 546.534 112.42 546.087 113.791 546.05C115.161 546.013 116.511 546.387 117.667 547.124C118.822 547.861 119.731 548.927 120.276 550.185C120.82 551.443 120.976 552.835 120.722 554.182C120.469 555.529 119.817 556.769 118.853 557.743C117.888 558.716 116.654 559.379 115.309 559.645C114.448 559.863 113.551 559.903 112.673 559.761C111.796 559.62 110.957 559.301 110.208 558.823C109.459 558.345 108.815 557.719 108.316 556.984C107.818 556.248 107.475 555.418 107.31 554.545ZM118.435 552.362C118.265 551.492 117.841 550.693 117.215 550.066C116.59 549.438 115.793 549.01 114.924 548.836C114.055 548.663 113.155 548.751 112.336 549.09C111.518 549.429 110.819 550.004 110.327 550.741C109.836 551.478 109.574 552.344 109.576 553.23C109.578 554.116 109.843 554.981 110.337 555.716C110.832 556.451 111.534 557.023 112.353 557.359C113.173 557.694 114.074 557.779 114.942 557.602C115.523 557.502 116.078 557.286 116.573 556.965C117.067 556.644 117.491 556.225 117.818 555.735C118.145 555.244 118.368 554.692 118.475 554.112C118.581 553.532 118.567 552.936 118.435 552.362Z" fill="#263238"/>
<path d="M124.757 546.272L120.618 547.093L120.233 545.12L130.835 543.041L131.219 544.997L127.08 545.818L129.158 556.298L126.835 556.769L124.757 546.272Z" fill="#263238"/>
<path d="M168.278 549.864L166.636 541.585L163.876 549.253L162.846 549.445L157.396 543.507L159.021 551.681L156.803 552.117L154.34 539.629L156.244 539.245L162.846 546.563L166.094 537.306L167.998 536.939L170.478 549.428L168.278 549.864Z" fill="#263238"/>
<path d="M182.861 544.974L183.228 546.93L173.866 548.764L171.403 536.258L180.52 534.512L180.905 536.45L174.111 537.795L174.739 541.044L180.782 539.856L181.149 541.76L175.176 543L175.857 546.493L182.861 544.974Z" fill="#263238"/>
<path d="M145.695 551.131L146.062 553.088L136.7 554.921L134.237 542.416L143.354 540.669L143.739 542.608L136.945 543.953L137.573 547.202L143.616 546.014L143.983 547.918L138.01 549.158L138.691 552.651L145.695 551.131Z" fill="#263238"/>
<path d="M67.3716 529.69L60.1777 531.907L64.4682 545.828L71.662 543.61L67.3716 529.69Z" fill="#E0E0E0"/>
<path d="M192.802 556.375L185.608 558.592L189.899 572.512L197.093 570.295L192.802 556.375Z" fill="#E0E0E0"/>
<path d="M187.277 507.343L179.761 506.932L178.965 521.477L186.482 521.888L187.277 507.343Z" fill="#E0E0E0"/>
<path d="M79.4568 580.084L71.9403 579.673L71.145 594.218L78.6615 594.629L79.4568 580.084Z" fill="#E0E0E0"/>
<path d="M864.38 18.1545C905.726 57.4739 895.16 130.292 903.199 147.414C906.918 153.572 909.469 161.065 910.596 169.138C910.871 177.868 906.691 185.989 906.599 194.787C906.599 206.968 913.857 216.714 918.635 227.271C921.871 234.233 924.015 242.169 924.913 250.502C925.811 258.836 925.44 267.36 923.826 275.456C923.579 277.224 923.093 278.901 922.399 280.389C921.705 281.876 920.815 283.145 919.783 284.118C918.029 285.224 916.132 285.755 914.225 285.675C875.084 288.292 835.913 288.878 796.711 287.434C787.835 288.168 778.964 285.851 770.801 280.667C760.464 272.343 756.284 256.101 752.792 241.144C749.301 226.188 745.488 209.54 741.813 193.772C739.23 183.649 737.262 173.209 735.932 162.573C735.082 147.787 734.898 132.933 735.381 118.111C734.738 104.371 734.6 90.5905 734.968 76.829C735.44 62.6309 739.333 49.146 745.947 38.7955" fill="#263238"/>
<path d="M887.986 92.8657C894.191 50.7737 873.786 10.3979 832.694 2.34533L832.279 2.34533C793.298 -4.91516 758.957 5.66441 752.489 20.6003C731.254 69.5378 739.91 86.9442 739.91 86.9442L830.676 155.287C830.676 155.287 877.822 134.712 887.685 94.0726C887.779 93.6766 887.911 93.2617 887.986 92.8657Z" fill="#263238"/>
<path d="M749.716 50.7549C756.524 31.5193 776.325 11.1523 795.259 18.8088L851.834 51.547C854.605 52.6627 856.856 54.778 858.141 57.4742C859.426 60.1703 859.652 63.2508 858.774 66.1057L817.06 198.812C814.147 208.08 807.683 215.816 799.081 220.329C790.478 224.843 780.439 225.765 771.158 222.894C762.012 220.065 754.331 213.777 749.752 205.369C745.173 196.961 744.057 187.098 746.642 177.879L751.432 160.813C751.432 160.813 727.614 149.498 731.706 115.439C733.781 98.4855 742.154 72.1026 749.716 50.7549Z" fill="#FFBE9D"/>
<path d="M748.528 70.9712C748.886 71.669 752.733 70.2357 757.222 71.5181C761.71 72.8005 764.388 76.0064 765.029 75.5915C765.35 75.4218 765.029 74.2903 763.954 72.8193C762.406 70.9258 760.312 69.5559 757.957 68.8968C755.617 68.2078 753.116 68.2938 750.829 69.1419C749.15 69.802 748.396 70.6695 748.528 70.9712Z" fill="#263238"/>
<path d="M792.243 85.3036C792.601 86.0013 796.448 84.5681 800.955 85.8505C805.462 87.1329 808.103 90.3388 808.744 89.9239C809.064 89.7542 808.744 88.6227 807.669 87.1517C806.112 85.2345 803.996 83.8502 801.615 83.1914C799.275 82.5025 796.774 82.5885 794.487 83.4366C792.808 84.1344 792.054 85.0773 792.243 85.3036Z" fill="#263238"/>
<path d="M769.725 108.405C769.819 108.16 767.16 106.878 762.785 105.011C761.672 104.558 760.654 104.03 760.673 103.125C760.928 101.912 761.539 100.802 762.427 99.9377L768.311 92.1492C776.589 81.0227 782.926 71.7444 782.473 71.4049C782.021 71.0655 774.93 79.8158 766.67 90.9423L760.918 98.8251C759.8 100.005 759.132 101.54 759.032 103.162C759.081 103.617 759.235 104.054 759.48 104.44C759.725 104.826 760.056 105.15 760.447 105.388C761.038 105.743 761.671 106.022 762.332 106.218C766.821 107.839 769.631 108.669 769.725 108.405Z" fill="#263238"/>
<path d="M751.452 160.813C766.75 165.415 783.025 165.683 798.466 161.586C798.466 161.586 781.078 180.859 749.302 168.507L751.452 160.813Z" fill="#EB996E"/>
<path d="M782.097 115.251C781.38 115.006 779.966 119.89 774.799 122.172C769.631 124.454 764.577 122.436 764.351 123.096C764.2 123.398 765.237 124.378 767.425 124.982C770.25 125.896 773.307 125.79 776.062 124.68C778.692 123.553 780.777 121.441 781.87 118.796C782.644 116.722 782.474 115.364 782.097 115.251Z" fill="#263238"/>
<path d="M796.75 68.9719C796.844 70.3108 801.502 71.0274 806.613 73.1584C811.723 75.2894 815.571 77.9485 816.589 77.0621C817.042 76.6284 816.589 75.1763 815.25 73.5733C813.382 71.4493 811.036 69.8009 808.404 68.7645C805.8 67.6568 802.965 67.1973 800.144 67.4255C797.976 67.6518 796.731 68.3307 796.75 68.9719Z" fill="#263238"/>
<path d="M756.92 53.6779C757.429 54.9226 760.824 54.734 764.576 55.7523C768.329 56.7707 771.252 58.3925 772.29 57.6381C772.761 57.2044 772.554 56.0352 771.441 54.6774C769.931 52.9748 767.943 51.7671 765.736 51.212C763.529 50.6569 761.206 50.7802 759.07 51.5657C757.448 52.1315 756.713 53.0179 756.92 53.6779Z" fill="#263238"/>
<path d="M859.246 108.461C859.058 108.952 843.688 121.662 836.333 118.23C814.043 108.009 829.789 48.0956 829.789 48.0956L821.944 69.481L785.548 57.0156L795.976 32.8392L782.474 54.2812L749.283 46.5869C749.283 46.5869 764.69 6.98428 792.205 8.56839C819.719 10.1525 887.421 38.9493 859.246 108.461Z" fill="#263238"/>
<path d="M842.388 108.669C842.897 108.556 860.661 104.69 857.003 123.473C853.344 142.256 835.278 134.694 835.278 134.109C835.278 133.525 842.388 108.669 842.388 108.669Z" fill="#FFBE9D"/>
<path d="M842.443 128.15C842.537 128.15 842.726 128.451 843.235 128.81C843.947 129.295 844.819 129.484 845.668 129.338C847.799 128.998 850.081 126.17 850.835 122.813C851.204 121.212 851.204 119.548 850.835 117.947C850.79 117.331 850.595 116.736 850.266 116.213C849.937 115.69 849.485 115.256 848.949 114.949C848.59 114.779 848.184 114.739 847.799 114.835C847.414 114.931 847.074 115.158 846.837 115.477C846.479 115.948 846.535 116.344 846.422 116.363C846.309 116.382 846.083 115.967 846.422 115.213C846.616 114.766 846.964 114.405 847.403 114.195C847.989 113.902 848.667 113.855 849.289 114.062C850.032 114.366 850.686 114.855 851.187 115.482C851.689 116.109 852.022 116.854 852.155 117.646C852.63 119.427 852.668 121.296 852.268 123.096C851.401 126.867 848.779 130.017 845.913 130.281C845.378 130.326 844.84 130.252 844.337 130.063C843.835 129.873 843.381 129.574 843.009 129.187C842.386 128.621 842.368 128.169 842.443 128.15Z" fill="#EB996E"/>
<path d="M805.462 56.1671C805.772 55.5274 805.994 54.8486 806.122 54.1493L807.706 48.586C809.479 42.4984 811.582 36.5115 814.004 30.6517C816.445 24.7953 819.196 19.0731 822.246 13.5094L825.074 8.47422C825.472 7.88801 825.795 7.25451 826.036 6.58838C825.541 7.09987 825.111 7.66984 824.754 8.28564C823.981 9.39828 822.868 11.0767 821.642 13.1888C818.391 18.6795 815.536 24.3956 813.099 30.2934C810.642 36.1779 808.6 42.2274 806.989 48.3975C806.386 50.7736 805.952 52.7161 805.707 54.055C805.547 54.7478 805.465 55.4562 805.462 56.1671Z" fill="#455A64"/>
<path d="M782.361 37.6859C782.53 37.6859 783.832 34.8383 786.698 30.5386C788.368 28.0401 790.215 25.6641 792.224 23.429C794.71 20.7047 797.409 18.1823 800.295 15.8856C803.223 13.6426 806.326 11.6373 809.573 9.88862C812.23 8.48077 814.984 7.26445 817.815 6.24895C822.661 4.53283 825.829 3.98595 825.792 3.79736C825.041 3.80277 824.294 3.89774 823.566 4.08024C822.688 4.21657 821.819 4.40548 820.964 4.64599C819.983 4.91 818.814 5.15516 817.588 5.58891C814.684 6.52505 811.858 7.69169 809.14 9.07771C805.835 10.8172 802.681 12.8295 799.71 15.0935C796.777 17.4384 794.052 20.0316 791.564 22.8444C789.546 25.1339 787.723 27.5877 786.114 30.1803C785.478 31.1622 784.893 32.1755 784.36 33.2165C783.92 33.983 783.53 34.7766 783.191 35.5926C782.83 36.2541 782.551 36.9571 782.361 37.6859Z" fill="#455A64"/>
<path d="M761.277 38.8739C762.199 35.3986 763.555 32.0532 765.313 28.9167C769.9 21.4915 776.579 15.5868 784.511 11.9441C792.476 8.45353 800.905 6.13502 809.536 5.06082L817.4 4.00475C818.372 3.92153 819.337 3.76392 820.285 3.53329C819.313 3.43796 818.334 3.43796 817.362 3.53329C815.476 3.64644 812.779 3.8916 809.441 4.28763C800.685 5.15034 792.123 7.40392 784.077 10.9635C775.972 14.6799 769.209 20.804 764.709 28.5018C763.37 30.8653 762.367 33.4043 761.73 36.0452C761.561 36.7483 761.429 37.4595 761.334 38.1762C761.29 38.4061 761.271 38.64 761.277 38.8739Z" fill="#455A64"/>
<path d="M867.601 102.238C867.601 102.238 867.79 101.955 868.054 101.352L869.129 98.7306C869.581 97.5803 870.053 96.147 870.637 94.4875C871.222 92.828 871.769 90.9044 872.259 88.83C875.04 77.6134 875.806 65.9922 874.522 54.5077C872.976 41.1182 869.072 29.162 863.716 21.9769C861.686 19.0993 859.126 16.6351 856.173 14.7164C855.358 14.2203 854.507 13.7853 853.627 13.4152C853.331 13.2676 853.021 13.1476 852.703 13.0569C852.703 13.17 853.929 13.6792 855.947 14.9427C858.769 16.9361 861.209 19.421 863.151 22.2786C868.261 29.4071 872.014 41.2691 873.542 54.5265C874.83 65.8984 874.193 77.4061 871.656 88.566C871.203 90.7158 870.618 92.6205 870.185 94.2235L868.846 98.4855L867.941 101.163C867.785 101.507 867.671 101.868 867.601 102.238Z" fill="#455A64"/>
<path d="M859.926 104.916C856.643 101.863 853.811 98.3576 851.515 94.5064C849.119 90.2855 847.317 85.7546 846.159 81.0415C844.727 75.2707 843.886 69.369 843.651 63.4277C843.387 57.0913 843.519 51.0189 843.538 45.5122C843.557 40.0056 843.538 35.0081 843.236 30.8404C843.039 27.5443 842.642 24.2632 842.048 21.0152C841.841 19.8648 841.614 18.9785 841.463 18.3938C841.429 18.0789 841.34 17.7725 841.199 17.4886C841.283 18.6915 841.441 19.8881 841.671 21.0717C841.991 23.3725 842.35 26.7293 842.538 30.8781C842.727 35.0269 842.727 39.9867 842.538 45.4934C842.35 51 842.312 57.0724 842.538 63.4654C842.816 69.4921 843.733 75.4722 845.273 81.3055C846.502 86.0838 848.407 90.6623 850.93 94.9024C852.627 97.7519 854.708 100.354 857.116 102.634C857.767 103.257 858.454 103.843 859.171 104.388C859.404 104.59 859.657 104.767 859.926 104.916Z" fill="#455A64"/>
<path d="M838.653 135.297C838.653 135.297 838.37 135.674 838.257 136.466C838.126 137.612 838.309 138.773 838.785 139.823C839.493 141.419 840.78 142.686 842.387 143.369C843.401 143.718 844.483 143.824 845.546 143.678C846.608 143.532 847.622 143.139 848.504 142.53C849.387 141.92 850.114 141.112 850.627 140.171C851.14 139.229 851.425 138.18 851.458 137.108C851.391 135.365 850.663 133.713 849.421 132.487C848.61 131.673 847.593 131.093 846.479 130.809C845.687 130.62 845.235 130.696 845.235 130.809C846.633 131.208 847.902 131.969 848.912 133.015C849.944 134.161 850.526 135.641 850.553 137.183C850.494 138.098 850.229 138.988 849.777 139.785C849.324 140.583 848.697 141.267 847.941 141.786C847.185 142.306 846.322 142.647 845.415 142.784C844.509 142.921 843.583 142.85 842.708 142.576C841.288 141.998 840.119 140.936 839.407 139.578C838.773 138.246 838.512 136.766 838.653 135.297Z" fill="#FAFAFA"/>
<path d="M794.638 194.946C813.27 190.76 821.662 183.631 821.662 183.631L820.455 192.891L801.86 209.543L860.321 261.781C856.342 277.697 814.326 377.194 805.312 409.14C796.297 441.086 842.745 470.204 798.504 489.043C754.262 507.883 587.949 498.472 583.857 464.112C580.632 436.975 603.583 351.679 613.427 316.809L572.24 313.038C536.73 253.162 664.552 181.029 688.767 174.787C710.869 168.997 736.78 175.579 741.136 176.673L741.796 174.617L748.887 169.865C748.597 170.69 748.364 171.534 748.189 172.392C748.529 188.063 765.407 193.475 776.609 195.324C782.587 196.363 788.709 196.235 794.638 194.946Z" fill="#4F97CA"/>
<g opacity="0.3">
<path d="M632.342 373.027C662.491 386.557 695.983 390.813 728.558 385.252C761.133 379.691 791.316 364.564 815.268 341.797C801.653 361.693 786.679 385.341 765.03 395.958C751.829 402.427 736.931 404.614 722.278 405.878C694.443 408.292 664.194 407.085 641.865 390.301C636 396.901 630.079 403.502 622.894 408.726C615.709 413.949 607.072 417.457 598.246 417.061C603.885 399.108 618.406 385.624 632.342 373.027Z" fill="black"/>
</g>
<path d="M656.688 428.621C641.206 440.087 624.535 453.891 608.901 465.15C606.179 467.167 603.052 468.569 599.736 469.261C592.815 470.355 589.383 465.979 585.404 460.209C580.276 452.801 576.278 444.672 573.542 436.089C571.486 429.62 570.449 421.738 575.032 416.702C578.426 412.931 582.198 412.667 587.044 411.271C588.93 410.705 591.872 400.974 592.419 399.164L598.284 415.477L611.824 421.228L640.697 418.305L656.688 428.621Z" fill="#4F97CA"/>
<path d="M592.004 408.386C592.302 409.088 592.682 409.753 593.136 410.366C594.254 412.124 595.463 413.824 596.756 415.458C605.249 426.337 616.162 435.086 628.627 441.011C631.022 442.123 632.983 442.897 634.379 443.425C635.084 443.721 635.817 443.949 636.566 444.104C636.566 443.934 633.606 442.765 629.023 440.332C616.853 434.169 606.071 425.582 597.341 415.099C594.022 410.988 592.193 408.291 592.004 408.386Z" fill="#263238"/>
<path d="M739.929 176.446C739.928 176.77 739.966 177.093 740.042 177.408C740.209 178.318 740.423 179.218 740.683 180.105C741.707 183.35 743.262 186.402 745.285 189.138C748.29 193.211 752.103 196.62 756.487 199.152C761.886 202.182 767.836 204.105 773.987 204.809C785.145 206.206 796.473 204.598 806.801 200.151C809.904 198.782 812.84 197.061 815.551 195.022C816.291 194.475 817.003 193.889 817.682 193.268C818.135 192.853 818.38 192.627 818.361 192.589C818.342 192.551 817.286 193.381 815.325 194.72C812.561 196.603 809.617 198.208 806.537 199.51C796.282 203.736 785.109 205.243 774.1 203.885C768.073 203.188 762.241 201.311 756.939 198.36C752.628 195.925 748.85 192.648 745.832 188.723C743.799 186.067 742.184 183.116 741.042 179.973C740.269 177.729 740.023 176.428 739.929 176.446Z" fill="#263238"/>
<path d="M717.826 109.952C720.262 111.596 722.564 113.431 724.71 115.439C725.597 116.756 726.385 118.136 727.067 119.569C727.365 120.047 727.473 120.619 727.369 121.172C727.265 121.364 727.121 121.531 726.948 121.663C726.775 121.794 726.577 121.888 726.365 121.938C726.153 121.988 725.933 121.993 725.719 121.952C725.506 121.911 725.303 121.825 725.125 121.7C724.43 121.144 723.912 120.397 723.635 119.551C723.543 120.165 723.323 120.754 722.99 121.28C722.658 121.805 722.219 122.255 721.703 122.601C721.186 122.947 720.603 123.181 719.991 123.289C719.379 123.397 718.751 123.376 718.147 123.228C716.943 122.842 715.89 122.089 715.136 121.075C714.382 120.06 713.964 118.835 713.942 117.57C713.866 115.043 716.054 111.743 717.826 109.952Z" fill="#263238"/>
<path d="M511.233 467.224C511.912 466.922 511.082 463.886 510.422 459.058C510.271 457.832 510.082 456.512 510.026 455.098C509.969 453.684 509.913 452.156 509.875 450.553C509.947 447.097 510.306 443.653 510.95 440.256C511.654 436.876 512.651 433.563 513.93 430.356C514.571 428.885 515.136 427.47 515.815 426.226C516.494 424.981 517.098 423.774 517.701 422.718C520.172 418.494 522.114 416.023 521.605 415.476C521.096 414.93 518.305 416.665 514.872 420.7C513.934 421.797 513.071 422.956 512.289 424.17C511.374 425.559 510.543 427.001 509.8 428.489C508.141 431.928 506.906 435.557 506.122 439.295C505.418 443.022 505.158 446.821 505.349 450.61C505.466 452.261 505.68 453.905 505.99 455.532C506.231 456.957 506.578 458.363 507.027 459.737C508.649 464.867 510.686 467.488 511.233 467.224Z" fill="#263238"/>
<path d="M502.389 472.448C502.993 471.977 501.126 468.921 498.957 463.811C498.345 462.425 497.803 461.009 497.335 459.568C496.751 458.059 496.317 456.362 495.808 454.608C494.852 450.783 494.221 446.884 493.922 442.953C493.714 439.008 493.846 435.052 494.318 431.129C494.601 429.338 494.789 427.603 495.185 426.019C495.581 424.435 495.883 422.964 496.26 421.606C497.769 416.25 499.221 413.006 498.58 412.61C497.939 412.214 495.487 414.986 492.922 420.418C492.232 421.896 491.646 423.421 491.168 424.981C490.599 426.763 490.133 428.577 489.773 430.413C488.123 438.903 488.675 447.674 491.376 455.89C491.964 457.667 492.663 459.406 493.469 461.095C494.131 462.582 494.9 464.019 495.77 465.395C499.032 470.487 501.937 472.825 502.389 472.448Z" fill="#263238"/>
<path d="M546.103 345.323C546.254 345.323 545.556 343.136 544.859 339.666C543.994 335.048 543.496 330.369 543.369 325.673C543.161 320.166 543.369 315.169 543.576 311.548C543.78 309.6 543.849 307.64 543.784 305.683C543.296 307.592 542.993 309.543 542.879 311.51C542.396 316.227 542.232 320.971 542.388 325.71C542.531 330.465 543.163 335.192 544.274 339.817C544.598 341.219 545.014 342.599 545.519 343.947C545.802 344.814 546.028 345.323 546.103 345.323Z" fill="#263238"/>
<path d="M483.587 567.381C483.587 567.381 392.765 599.44 389.126 601.1C383.694 603.438 386.071 623.824 394.783 622.9C398.875 622.448 466.106 620.392 474.535 619.279C482.965 618.167 507.82 606.286 507.82 606.286L483.587 567.381Z" fill="#455A64"/>
<path d="M447.473 605.437C447.02 605.531 446.039 600.685 442.701 595.782C439.363 590.878 435.29 588.106 435.554 587.71C435.818 587.314 440.476 589.596 443.984 594.914C447.491 600.232 447.869 605.437 447.473 605.437Z" fill="#263238"/>
<path d="M456.827 600.384C456.374 600.497 455.129 596.178 452.319 591.501C449.509 586.824 446.379 583.656 446.662 583.317C446.945 582.977 450.735 585.768 453.639 590.709C456.544 595.65 457.223 600.327 456.827 600.384Z" fill="#263238"/>
<path d="M465.652 597.309C465.181 597.309 465.218 592.67 462.805 587.672C460.391 582.675 456.845 579.733 457.147 579.375C457.449 579.016 461.673 581.581 464.2 587.012C466.727 592.444 466.105 597.422 465.652 597.309Z" fill="#263238"/>
<path d="M463.238 585.466C462.253 583.326 461.745 580.996 461.748 578.64C461.589 576.118 461.728 573.586 462.163 571.096C462.425 569.61 462.784 568.142 463.238 566.702C463.461 565.808 463.916 564.988 464.558 564.326C465.005 563.953 465.569 563.749 466.152 563.749C466.734 563.749 467.298 563.953 467.745 564.326C468.512 564.968 469.021 565.866 469.178 566.853C469.325 567.657 469.42 568.47 469.461 569.286C469.554 570.818 469.472 572.355 469.216 573.869C468.764 576.391 467.971 578.839 466.859 581.148C465.972 583.317 464.693 585.306 463.087 587.013C462.861 586.881 464.256 584.618 465.84 580.714C466.748 578.447 467.382 576.079 467.726 573.661C467.92 572.249 467.97 570.821 467.877 569.399C467.726 567.966 467.613 566.193 466.746 565.627C466.578 565.468 466.355 565.38 466.123 565.38C465.892 565.38 465.669 565.468 465.501 565.627C465.073 566.106 464.768 566.682 464.615 567.306C464.151 568.676 463.773 570.075 463.483 571.492C463.012 573.903 462.772 576.353 462.767 578.809C462.88 582.826 463.483 585.41 463.238 585.466Z" fill="#263238"/>
<path d="M463.277 584.523C465.107 583.599 467.13 583.121 469.18 583.128C471.399 582.97 473.629 583.09 475.818 583.486C477.159 583.672 478.467 584.047 479.703 584.599C480.489 584.932 481.145 585.511 481.574 586.249C482.002 586.987 482.179 587.844 482.079 588.691C481.928 589.505 481.562 590.263 481.018 590.887C480.474 591.511 479.772 591.977 478.986 592.237C477.641 592.671 476.21 592.768 474.819 592.519C472.59 592.113 470.47 591.246 468.595 589.974C466.825 588.965 465.263 587.627 463.994 586.032C465.785 586.909 467.511 587.911 469.161 589.031C470.967 590.083 472.958 590.78 475.026 591.086C476.176 591.277 477.355 591.18 478.458 590.803C478.984 590.629 479.454 590.319 479.821 589.905C480.189 589.492 480.441 588.988 480.552 588.446C480.603 587.919 480.479 587.39 480.199 586.94C479.92 586.49 479.5 586.145 479.005 585.957C477.899 585.452 476.733 585.091 475.535 584.882C473.457 584.451 471.34 584.236 469.218 584.241C465.653 584.241 463.334 584.825 463.277 584.523Z" fill="#263238"/>
<path d="M433.311 607.455C432.858 607.455 433.028 603.457 430.897 599.233C428.766 595.009 425.598 592.689 425.862 592.312C426.126 591.935 430.011 593.839 432.292 598.554C434.574 603.269 433.707 607.568 433.311 607.455Z" fill="#263238"/>
<path d="M498.239 607.153C497.159 607.913 495.995 608.546 494.77 609.039C491.511 610.629 488.146 611.99 484.699 613.113C473.258 616.404 461.462 618.303 449.566 618.77C435.686 619.6 423.164 619.845 414.037 620.128L403.25 620.298C401.935 620.383 400.615 620.339 399.308 620.166C400.596 619.873 401.91 619.715 403.231 619.694L413.98 619.015L449.472 617.224C461.264 616.694 472.966 614.904 484.379 611.887C493.11 609.53 498.107 606.889 498.239 607.153Z" fill="#263238"/>
<path d="M501.125 609.077C498.699 608.312 496.314 607.425 493.978 606.418C488.335 604.213 482.188 603.632 476.232 604.74C469.33 606.305 464.709 611.34 461.73 614.81C460.213 616.864 458.555 618.811 456.77 620.637C457.841 618.297 459.217 616.109 460.862 614.131C462.507 611.866 464.405 609.797 466.52 607.964C469.196 605.666 472.384 604.043 475.817 603.231C482.047 602.017 488.5 602.775 494.279 605.4C496.744 606.25 499.055 607.492 501.125 609.077Z" fill="#263238"/>
<path d="M583.272 528.137C583.272 528.137 674.98 579.356 678.243 581.506C683.221 584.75 678.997 602.118 670.699 599.742C666.72 598.63 591.739 583.336 583.611 580.884C575.483 578.432 552.985 562.497 552.985 562.497L583.272 528.137Z" fill="#455A64"/>
<path d="M612.484 571.624C612.088 571.624 613.295 566.4 617.689 561.818C622.083 557.235 627.118 555.745 627.118 556.16C627.118 556.575 622.781 558.593 618.707 562.912C614.634 567.23 612.918 571.869 612.484 571.624Z" fill="#263238"/>
<path d="M604.112 565.137C603.735 565.024 605.111 560.498 608.845 556.142C612.579 551.785 616.785 549.673 616.973 550.031C617.162 550.39 613.541 552.992 610.033 557.16C606.526 561.328 604.527 565.326 604.112 565.137Z" fill="#263238"/>
<path d="M595.776 560.63C595.361 560.63 595.455 555.613 598.925 550.71C602.395 545.807 607.053 543.978 607.167 544.374C607.28 544.77 603.395 547.052 600.189 551.615C596.983 556.179 596.323 560.705 595.776 560.63Z" fill="#263238"/>
<path d="M600.301 549.371C600.056 549.277 601.093 546.825 601.81 542.658C602.227 540.242 602.404 537.791 602.338 535.341C602.295 533.894 602.163 532.452 601.942 531.022C601.9 530.353 601.693 529.705 601.338 529.136C601.194 528.958 600.988 528.841 600.762 528.806C600.535 528.771 600.304 528.821 600.113 528.948C599.151 529.419 598.736 531.154 598.359 532.531C598.026 533.922 597.837 535.344 597.793 536.774C597.75 539.221 597.997 541.664 598.529 544.053C599.434 548.164 600.414 550.635 600.207 550.729C598.889 548.789 597.96 546.611 597.472 544.317C596.75 541.867 596.376 539.328 596.36 536.774C596.364 535.244 596.541 533.719 596.888 532.229C597.062 531.427 597.295 530.639 597.586 529.872C597.91 528.909 598.583 528.101 599.471 527.609C599.984 527.326 600.58 527.231 601.155 527.341C601.73 527.452 602.249 527.76 602.621 528.212C603.133 528.978 603.444 529.86 603.526 530.777C603.732 532.271 603.839 533.776 603.847 535.284C603.843 537.823 603.552 540.354 602.979 542.827C602.57 545.177 601.657 547.409 600.301 549.371Z" fill="#263238"/>
<path d="M600.415 548.428C600.302 548.654 598.19 547.749 594.588 547.146C592.495 546.79 590.372 546.651 588.251 546.731C587.042 546.734 585.837 546.893 584.668 547.202C584.159 547.312 583.699 547.585 583.358 547.98C583.018 548.375 582.816 548.87 582.782 549.39C582.797 549.945 582.961 550.487 583.256 550.958C583.551 551.429 583.967 551.812 584.461 552.068C585.481 552.621 586.62 552.918 587.78 552.935C589.871 552.977 591.952 552.619 593.909 551.879C595.741 551.049 597.632 550.355 599.566 549.805C598.037 551.152 596.273 552.207 594.361 552.916C592.301 553.858 590.064 554.353 587.799 554.369C586.386 554.388 584.992 554.051 583.744 553.388C583.012 553.003 582.397 552.43 581.963 551.726C581.528 551.023 581.29 550.216 581.274 549.39C581.318 548.533 581.64 547.715 582.191 547.058C582.742 546.401 583.493 545.942 584.329 545.75C585.6 545.399 586.913 545.221 588.232 545.222C590.45 545.206 592.661 545.465 594.814 545.995C596.848 546.348 598.769 547.182 600.415 548.428Z" fill="#263238"/>
<path d="M659.216 597.329C659.216 597.479 657.689 596.537 656.84 594.085C655.907 590.867 656.258 587.412 657.821 584.448C658.576 582.856 659.452 581.324 660.442 579.866C661.207 578.618 662.133 577.477 663.195 576.471C663.948 575.759 664.891 575.281 665.911 575.094C666.646 575.094 667.023 575.094 667.023 575.264C667.023 575.434 665.477 575.49 663.968 577.263C663.082 578.302 662.31 579.434 661.668 580.639C660.773 582.081 659.961 583.574 659.235 585.108C657.842 587.772 657.371 590.823 657.896 593.783C658.386 596.027 659.424 597.159 659.216 597.329Z" fill="#263238"/>
<path d="M626.099 576.018C625.703 576.018 625.515 571.643 628.608 567.419C631.7 563.194 635.944 561.931 636 562.327C636.057 562.723 632.587 564.458 629.871 568.324C627.155 572.19 626.571 576.075 626.099 576.018Z" fill="#263238"/>
<path d="M562.151 564.892C563.552 565.585 564.901 566.379 566.187 567.268C569.847 569.432 573.624 571.39 577.502 573.133C583.26 575.656 589.175 577.804 595.21 579.563C602.018 581.562 609.618 583.335 617.651 585.108C633.738 588.54 648.315 591.689 658.838 594.066L671.209 596.951C672.753 597.237 674.267 597.66 675.735 598.214C674.174 598.11 672.622 597.883 671.096 597.535L658.536 595.141C647.957 593.047 633.379 590.068 617.274 586.617C609.222 584.9 601.584 583.033 594.644 580.959C588.567 579.138 582.635 576.862 576.898 574.151C573.033 572.315 569.308 570.197 565.753 567.815C564.462 566.958 563.256 565.979 562.151 564.892Z" fill="#263238"/>
<path d="M558.983 566.287C561.264 565.08 563.72 564.239 566.263 563.798C572.405 562.186 578.895 562.522 584.838 564.76C588.084 566.13 590.955 568.258 593.211 570.964C595.007 573.138 596.556 575.503 597.832 578.017C599.127 580.244 600.116 582.636 600.773 585.127C599.314 583.03 598.01 580.831 596.87 578.545C594.494 574.623 590.779 568.89 584.235 566.193C578.552 564.104 572.399 563.646 566.47 564.873C561.831 565.684 559.04 566.532 558.983 566.287Z" fill="#263238"/>
<path d="M387.729 406.048C387.729 406.048 362.101 417.363 364.062 446.782C367.834 503.263 486.51 557.48 486.51 557.48L631.606 446.008L640.885 441.482C640.885 441.482 430.048 378.759 387.729 406.048Z" fill="#263238"/>
<path d="M558.455 504.017C557.008 503.335 555.62 502.533 554.306 501.622C551.685 499.981 547.951 497.548 543.35 494.493C534.165 488.364 521.644 479.651 508.141 469.619C494.638 459.586 482.663 450.082 474.196 443.047C469.953 439.521 466.539 436.635 464.22 434.599C462.964 433.608 461.797 432.51 460.731 431.317C462.095 432.155 463.394 433.094 464.616 434.127L474.894 442.18C483.568 448.988 495.638 458.323 509.103 468.355C522.568 478.388 534.995 487.214 544.01 493.588L554.683 501.131C556.017 501.989 557.279 502.954 558.455 504.017Z" fill="#455A64"/>
<path d="M432.557 425.829C432.557 425.471 439.214 424.321 447.304 426.131C455.394 427.942 461.052 431.789 460.825 432.071C460.599 432.354 454.81 429.337 446.983 427.659C439.157 425.98 432.576 426.414 432.557 425.829Z" fill="#455A64"/>
<path d="M445.04 416.023C445.153 415.646 450.169 417.438 454.469 422.171C458.769 426.905 460.372 432.072 459.995 432.072C459.617 432.072 457.581 427.64 453.413 423.227C449.245 418.814 444.814 416.438 445.04 416.023Z" fill="#455A64"/>
<path d="M393.18 599.346C393.086 599.176 394.953 598.686 397.178 600.27C399.817 602.418 401.598 605.443 402.194 608.794C402.921 612.067 402.679 615.481 401.496 618.619C400.591 621.014 399.479 622.183 399.328 622.07C399.618 620.789 399.996 619.528 400.459 618.298C401.244 615.302 401.321 612.165 400.685 609.133C400.119 606.115 398.661 603.337 396.499 601.156C394.764 599.553 393.161 599.61 393.18 599.346Z" fill="#263238"/>
<path d="M472.97 567.06C472.97 567.06 678.017 410.969 686.598 407.424C695.178 403.879 715.489 388.434 737.176 392.809C758.863 397.184 779.268 414.911 790.753 442.124C797.315 457.663 801.804 484.649 804.444 504.941C807.808 529.211 801.592 553.838 787.113 573.604C780.456 582.524 772.026 590.483 761.654 594.518C759.467 595.367 757.185 596.14 754.846 596.819C714.81 608.492 671.869 593.179 646.505 560.026L641.036 552.766C641.036 552.766 504.048 614.301 501.804 613.716L472.97 567.06Z" fill="#263238"/>
<path d="M736.158 509.58C736.158 509.58 735.781 509.807 735.027 510.184L731.594 511.824L718.393 518.029L669.098 540.659C648.146 550.201 623.045 561.535 594.89 574.095C566.734 586.655 535.486 600.497 502.069 614.414L501.465 614.659L501.126 614.093L482.079 583.203L472.367 567.457L471.989 566.853L472.574 566.438L629.155 450.931L676.301 416.42L689.087 407.122L692.425 404.746C693.18 404.218 693.595 403.973 693.595 403.973C693.595 403.973 693.255 404.294 692.52 404.859L689.257 407.368L676.641 416.797C665.571 425.038 649.636 436.956 629.872 451.704L473.517 567.664L473.706 566.646L483.418 582.393L502.465 613.301L501.503 612.981C534.901 599.026 566.15 585.297 594.343 572.85L668.702 539.716L718.186 517.52L731.557 511.56L735.027 510.052C735.743 509.712 736.158 509.58 736.158 509.58Z" fill="#455A64"/>
<path d="M475.648 259.027C482.437 247.26 496.977 239.942 510.177 243.13C516.25 244.6 522.247 248.787 523.378 254.916C524.812 262.573 518.551 269.23 515.326 276.301C512.828 282.117 512.256 288.579 513.691 294.744C515.126 300.908 518.494 306.452 523.303 310.567C531.657 317.394 535.485 317.507 542.802 312.774C543.067 310.416 543.406 308.116 543.764 305.871C545.65 294.896 556.682 282.751 564.207 274.548C571.222 266.91 586.045 263.233 594.041 256.613C611.881 241.885 626.817 213.56 631.758 190.967L652.219 190.967L693.707 201.377C693.707 201.377 703.985 236.699 693.707 270.399C683.43 304.099 672.02 315.15 672.02 315.15C666.74 332.575 661.309 350.34 650.71 365.143C640.112 379.947 623.271 391.545 605.073 390.942C586.497 390.338 570.732 377.948 557.569 364.804C549.555 356.697 544.427 346.182 542.972 334.876C529.771 333.782 516.457 331.236 504.463 325.541C492.187 319.714 481.286 310.36 475.308 298.158C469.33 285.957 468.859 270.795 475.648 259.027Z" fill="#455A64"/>
<path d="M583.518 323.58C582.522 325.58 580.98 327.258 579.071 328.42C577.161 329.582 574.962 330.179 572.727 330.144C570.493 330.108 568.314 329.441 566.442 328.219C564.571 326.998 563.083 325.272 562.151 323.24C560.756 320.185 560.567 316.395 558.078 314.132C556.362 312.547 553.929 312.095 551.93 310.888C550.076 309.568 548.629 307.756 547.752 305.656C546.876 303.556 546.605 301.253 546.97 299.007C547.777 294.528 549.654 290.31 552.439 286.711C555.325 282.576 558.569 278.701 562.132 275.132C563.829 273.435 565.904 271.7 568.318 272.021C571.241 272.436 572.768 275.66 573.711 278.47C578.303 292.09 581.661 306.096 583.744 320.317" fill="#263238"/>
<path d="M631.06 196.172C631.06 194.022 638.075 149.818 642.922 143.897C647.768 137.975 668.248 125.566 668.248 125.566C668.248 125.566 692.5 125.566 697.894 122.342C703.287 119.117 717.827 109.952 717.827 109.952C717.827 109.952 730.217 118.023 733.989 127.735C737.761 137.447 733.461 148.743 733.989 149.818C734.517 150.893 706.512 169.771 702.741 175.692C698.969 181.614 696.819 205.866 694.65 208.034C692.482 210.203 631.06 196.172 631.06 196.172Z" fill="#455A64"/>
<path d="M660.14 142.501C660.14 142.501 661.366 143.387 663.459 145.16C666.405 147.654 668.949 150.586 671.002 153.854C672.426 156.087 673.596 158.471 674.491 160.963C675.59 163.791 676.227 166.778 676.377 169.808C676.563 173.127 675.589 176.406 673.624 179.086C671.337 181.832 668.294 183.845 664.873 184.876C661.431 185.991 657.897 186.798 654.313 187.29C650.899 187.893 647.41 188.101 644.695 186.498C643.381 185.792 642.369 184.632 641.847 183.235C641.41 181.86 641.25 180.411 641.376 178.973C641.602 176.144 641.979 173.448 642.224 171.015C642.715 166.244 643.13 162.321 643.431 159.455C643.563 158.191 643.639 157.135 643.714 156.305C643.76 155.942 643.76 155.575 643.714 155.212C643.592 155.558 643.516 155.92 643.488 156.287C643.356 157.116 643.205 158.172 643.016 159.417C642.639 162.265 642.13 166.168 641.489 170.94C641.206 173.391 640.791 176.013 640.527 178.936C640.368 180.479 640.529 182.039 640.999 183.518C641.581 185.119 642.719 186.457 644.205 187.29C645.721 188.146 647.424 188.618 649.164 188.666C650.928 188.717 652.692 188.578 654.426 188.252C658.075 187.756 661.672 186.935 665.175 185.8C668.772 184.705 671.967 182.573 674.359 179.671C676.427 176.806 677.446 173.317 677.244 169.789C677.131 166.669 676.493 163.59 675.359 160.681C672.973 154.441 668.931 148.971 663.666 144.858C662.838 144.178 661.969 143.548 661.064 142.973C660.777 142.777 660.466 142.619 660.14 142.501Z" fill="#263238"/>
<path d="M692.387 136.806C692.481 136.806 692.01 135.637 690.501 134.656C689.477 133.989 688.292 133.61 687.072 133.559C685.851 133.508 684.638 133.786 683.562 134.365C682.486 134.943 681.585 135.801 680.954 136.848C680.324 137.894 679.987 139.092 679.978 140.314C679.843 141.305 680.108 142.309 680.714 143.105C680.883 143.105 680.468 142.03 680.714 140.37C680.801 139.309 681.151 138.286 681.732 137.393C682.313 136.5 683.106 135.765 684.041 135.255C684.976 134.745 686.022 134.474 687.088 134.469C688.153 134.463 689.202 134.722 690.143 135.222C690.92 135.707 691.67 136.236 692.387 136.806Z" fill="#263238"/>
<path d="M732.216 128.188C732.046 128.188 731.348 130.074 729.689 132.846C725.339 140.179 718.54 145.742 710.491 148.555C707.417 149.611 705.399 149.932 705.418 150.101C705.898 150.187 706.39 150.187 706.87 150.101C708.147 149.925 709.408 149.648 710.642 149.272C714.806 148.03 718.683 145.974 722.047 143.222C725.41 140.471 728.194 137.078 730.235 133.242C730.862 132.09 731.386 130.884 731.801 129.64C732.028 129.186 732.169 128.694 732.216 128.188Z" fill="#263238"/>
<path d="M732.594 129.017C734.07 127.067 735.382 124.998 736.517 122.832C737.026 121.889 737.347 120.946 737.95 119.965C738.244 119.49 738.641 119.086 739.111 118.783C739.58 118.479 740.111 118.284 740.666 118.212C741.258 118.204 741.842 118.358 742.353 118.657C742.865 118.956 743.286 119.389 743.57 119.909C744.069 120.912 744.26 122.041 744.117 123.152C743.942 125.074 743.383 126.94 742.473 128.641C741.563 130.342 740.32 131.842 738.818 133.053C735.608 135.604 731.601 136.939 727.503 136.825C729.047 134.126 730.747 131.519 732.594 129.017Z" fill="#FF725E"/>
<path d="M641.167 176.201C642.27 175.01 643.619 174.072 645.12 173.453C646.621 172.834 648.239 172.55 649.861 172.618C653.105 172.78 656.273 173.655 659.139 175.183C661.159 176.078 662.985 177.359 664.514 178.954C665.256 179.773 665.81 180.744 666.136 181.8C666.462 182.856 666.552 183.97 666.4 185.065C666.4 185.065 654.293 188.704 650.238 188.195C646.183 187.686 642.827 188.025 641.167 182.82C640.752 180.633 640.752 178.388 641.167 176.201Z" fill="#263238"/>
<path d="M489.886 245.676C495.638 246.826 497.712 252.917 498.221 257.896C498.674 261.559 498.301 265.277 497.128 268.777C495.929 272.283 493.549 275.263 490.395 277.207C486.989 279.046 483.047 279.64 479.25 278.885C476.739 278.601 474.422 277.399 472.744 275.51C470.405 272.492 471.179 268.796 473.234 264.383C477.006 256.349 482.022 249.824 489.886 245.676Z" fill="#263238"/>
<path d="M605.412 389.791C602.734 393.846 599.962 398.183 599.755 402.992C599.547 407.801 603.055 413.214 607.92 413.157C612.013 413.157 615.068 409.517 617.538 406.236C624.817 396.562 633.417 384.53 640.696 374.856C628.584 368.868 617.195 361.515 606.751 352.942C601.678 366.973 605.525 375.893 604.865 390.772" fill="#455A64"/>
<path d="M547.706 358.524C547.334 357.4 546.724 356.37 545.917 355.504C545.109 354.638 544.124 353.957 543.029 353.508C541.073 352.772 539.18 351.876 537.371 350.83C536.468 350.294 535.747 349.498 535.303 348.546C534.859 347.594 534.712 346.53 534.882 345.493C535.236 344.611 535.807 343.832 536.543 343.229C537.278 342.626 538.153 342.218 539.087 342.042C540.634 341.623 542.248 341.514 543.837 341.721C545.426 341.928 546.958 342.446 548.346 343.247C549.734 344.048 550.95 345.115 551.924 346.387C552.899 347.66 553.612 349.112 554.023 350.66C555.023 354.432 553.778 358.977 550.251 360.636" fill="#FFBE9D"/>
<path d="M590.439 369.839L562.245 372.951L556.135 365.408L552.232 368.84C552.232 368.84 560.378 381.852 563.547 381.739C566.715 381.626 590.533 377.006 593.72 376.232C596.907 375.459 597.416 368.727 590.439 369.839Z" fill="#FFBE9D"/>
<path d="M596.341 378.835L569.053 381.154L563.697 374.573L560.265 377.59C560.265 377.59 570.128 390.584 572.881 390.584C575.635 390.584 596.416 385.171 599.17 384.511C601.923 383.851 602.47 377.93 596.341 378.835Z" fill="#FFBE9D"/>
<path d="M581.595 361.07L555.344 362.164L548.951 352.999L546.518 354.225C546.518 354.225 551.742 374.554 554.872 374.441C558.003 374.328 581.689 368.274 584.838 367.52C587.988 366.765 588.591 360.052 581.595 361.07Z" fill="#FFBE9D"/>
<path d="M547.818 358.939C548.113 361.282 548.749 363.569 549.704 365.728C550.6 368.136 551.633 370.491 552.797 372.781C552.975 373.118 553.17 373.445 553.382 373.762C553.524 373.979 553.703 374.171 553.91 374.327C554.111 374.446 554.337 374.516 554.57 374.535C555.381 374.669 556.21 374.669 557.021 374.535L561.811 373.743C567.418 372.767 572.965 371.477 578.426 369.877C580.519 369.254 582.197 368.689 583.348 368.274C583.967 368.102 584.557 367.842 585.102 367.501C585.102 367.369 582.461 368.142 578.256 369.217C574.05 370.292 568.186 371.612 561.642 372.781L556.87 373.592C556.165 373.704 555.445 373.704 554.739 373.592C554.607 373.592 554.325 373.592 554.343 373.479L554.136 373.215C553.939 372.929 553.756 372.633 553.589 372.328C552.4 370.089 551.324 367.792 550.364 365.445C549.497 363.446 548.856 361.805 548.478 360.674C548.313 360.076 548.092 359.495 547.818 358.939Z" fill="#EB996E"/>
<path d="M555.739 374.44C555.91 374.957 556.164 375.441 556.494 375.874C557.292 377.134 558.201 378.32 559.209 379.419C559.929 380.195 560.747 380.873 561.642 381.437C562.717 382.071 563.94 382.409 565.187 382.417C566.516 382.392 567.835 382.189 569.11 381.814C570.436 381.452 571.784 381.175 573.146 380.984C578.803 379.985 583.801 378.797 587.421 377.929C589.407 377.556 591.361 377.033 593.268 376.364C591.252 376.478 589.251 376.775 587.289 377.25C583.612 377.948 578.577 379.023 572.976 380.004C570.128 380.305 567.488 381.531 565.187 381.512C564.145 381.477 563.121 381.23 562.177 380.786C561.234 380.341 560.391 379.71 559.7 378.929C557.116 376.326 555.89 374.327 555.739 374.44Z" fill="#EB996E"/>
<path d="M820.455 192.853C820.455 192.853 865.715 221.952 860.284 269.022C854.853 316.093 805.595 349.001 794.11 359.09C782.625 369.179 713.019 403.162 657.254 382.606C599.133 361.202 576.163 319.035 570.732 302.288C565.301 285.542 562.151 253.521 570.902 244.11C579.652 234.7 607.204 219.915 613.937 225.252C620.669 230.589 613.937 252.823 650.239 256.858C686.541 260.894 784.699 213.824 786.717 213.145C788.735 212.466 820.455 192.853 820.455 192.853Z" fill="#4F97CA"/>
<g opacity="0.3">
<path d="M676.735 257.349L692.954 249.051L698.253 201.773C710.53 193.513 725.164 193.891 737.554 201.981C742.929 205.47 747.172 210.429 751.886 214.767C756.601 219.104 762.24 222.989 768.614 223.536C771.405 223.781 774.271 223.385 777.006 223.781C778.411 223.89 779.762 224.377 780.914 225.191C782.065 226.004 782.976 227.113 783.55 228.401C784.417 231.06 783.719 233.795 779.382 235.417L761.542 243.828C761.542 243.828 766.671 253.049 759.939 268.985C753.206 284.92 737.818 279.847 737.818 279.847C737.818 279.847 737.573 311.02 717.187 311.228C706.796 311.341 700.082 303.986 691.822 280.583C689.805 274.924 686.448 269.838 682.037 265.759C677.627 261.68 672.294 258.73 666.495 257.16C663.667 256.104 678.753 258.575 676.735 257.349Z" fill="black"/>
</g>
<path d="M591.873 229.797L592.325 229.627L593.626 229.099C594.777 228.627 596.474 227.948 598.718 227.213C601.404 226.267 604.177 225.591 606.997 225.195C608.735 224.943 610.503 225 612.221 225.365C613.125 225.586 613.96 226.026 614.653 226.647C615.335 227.33 615.807 228.194 616.011 229.137C617.041 233.668 618.792 238.004 621.197 241.979C622.577 244.174 624.162 246.232 625.931 248.127C626.829 249.161 627.834 250.097 628.929 250.918C630.076 251.726 631.287 252.439 632.55 253.049C637.925 255.525 643.65 257.153 649.523 257.877C652.609 258.297 655.725 258.461 658.839 258.367L663.553 258.141C665.128 258.103 666.704 258.179 668.268 258.367C672.269 258.674 676.094 260.135 679.281 262.573C683.611 265.941 687.06 270.309 689.333 275.302C691.463 279.908 692.82 284.833 693.35 289.88C694.083 298.387 693.226 306.956 690.823 315.15C688.937 322.127 686.862 327.596 685.505 331.368C684.826 333.254 684.298 334.631 683.92 335.687L683.524 336.818L683.411 337.214C683.411 337.214 683.506 337.101 683.619 336.856C683.732 336.611 683.902 336.196 684.09 335.762C684.524 334.725 685.09 333.292 685.825 331.481C687.995 326.197 689.883 320.803 691.483 315.319C693.989 307.062 694.917 298.405 694.217 289.804C693.697 284.656 692.334 279.63 690.181 274.925C687.853 269.791 684.321 265.295 679.885 261.818C676.551 259.212 672.524 257.644 668.306 257.311C666.697 257.123 665.078 257.048 663.459 257.085L658.726 257.33C649.856 257.531 641.053 255.767 632.946 252.163C630.509 251.074 628.335 249.472 626.572 247.467C624.823 245.624 623.257 243.615 621.895 241.47C619.492 237.586 617.734 233.338 616.69 228.891C616.447 227.816 615.889 226.838 615.087 226.082C614.309 225.402 613.377 224.923 612.372 224.686C610.576 224.357 608.736 224.357 606.94 224.686C604.087 225.123 601.287 225.856 598.586 226.874C596.361 227.666 594.682 228.42 593.551 228.929L592.287 229.551C592.005 229.683 591.854 229.778 591.873 229.797Z" fill="#263238"/>
<path d="M703.816 351.433C704.242 350.681 704.584 349.884 704.834 349.057C705.677 346.881 706.395 344.658 706.984 342.4C707.906 339.05 708.636 335.65 709.171 332.216C710.466 323.795 710.605 315.236 709.586 306.776C709.158 303.329 708.528 299.91 707.7 296.536C707.003 293.651 706.324 291.35 705.815 289.804C705.576 288.978 705.26 288.176 704.872 287.409C704.965 288.264 705.155 289.105 705.437 289.917C705.89 291.501 706.456 293.802 707.059 296.687C707.663 299.573 708.247 303.024 708.681 306.871C709.599 315.26 709.46 323.73 708.266 332.085C707.7 335.856 707.04 339.364 706.38 342.211C705.72 345.059 705.041 347.379 704.495 348.944C704.195 349.752 703.968 350.585 703.816 351.433Z" fill="#263238"/>
<path d="M753.205 245.826C754.814 245.669 756.393 245.295 757.901 244.714C761.606 243.533 765.213 242.064 768.688 240.32C772.187 238.581 775.537 236.557 778.702 234.266C780.097 233.408 781.366 232.361 782.474 231.155C781.052 231.897 779.691 232.748 778.4 233.7C775.166 235.763 771.823 237.652 768.386 239.358C764.953 241.09 761.428 242.632 757.826 243.978C756.243 244.482 754.699 245.099 753.205 245.826Z" fill="#263238"/>
<path d="M847.384 227.307C846.95 226.701 846.443 226.15 845.875 225.667C844.396 224.267 842.793 223.004 841.085 221.895C835.425 218.147 828.864 215.985 822.085 215.634C815.305 215.282 808.556 216.754 802.538 219.896C800.72 220.817 798.991 221.903 797.371 223.14C796.742 223.559 796.171 224.06 795.674 224.629C795.787 224.799 798.22 222.744 802.803 220.518C808.758 217.603 815.357 216.247 821.98 216.577C828.602 216.907 835.033 218.912 840.67 222.404C845.045 225.139 847.252 227.458 847.384 227.307Z" fill="#263238"/>
<path d="M577.086 316.319C577.186 316.549 577.306 316.77 577.445 316.979C577.728 317.432 578.105 318.035 578.576 318.865C579.595 320.468 580.99 322.938 583.121 325.861C588.909 334.333 595.53 342.205 602.885 349.359C613.756 360.049 626.21 368.999 639.809 375.893C647.871 379.871 656.312 383.03 665.004 385.322C674.37 387.706 683.986 388.972 693.65 389.094C698.61 389.339 703.494 388.981 708.322 388.811C713.131 388.302 717.883 387.981 722.485 387.132C731.37 385.772 740.144 383.761 748.736 381.117C763.323 376.651 777.268 370.312 790.224 362.258C798.933 356.842 806.978 350.424 814.193 343.136C815.361 342.024 816.457 340.84 817.475 339.59L819.756 336.894L821.152 335.234C821.323 335.055 821.474 334.859 821.604 334.649C821.604 334.649 821.416 334.819 821.076 335.177L819.605 336.78L817.248 339.383C816.21 340.608 815.101 341.773 813.929 342.872C806.633 350.04 798.555 356.366 789.847 361.73C776.923 369.678 763.038 375.945 748.528 380.381C739.968 382.98 731.233 384.965 722.39 386.322C717.827 387.151 713.093 387.453 708.322 387.962C703.513 388.132 698.648 388.49 693.726 388.245C684.137 388.115 674.597 386.849 665.306 384.473C656.666 382.168 648.277 379.009 640.262 375.044C626.679 368.24 614.22 359.393 603.318 348.812C595.943 341.74 589.268 333.972 583.385 325.616C581.198 322.712 579.764 320.298 578.689 318.714L577.482 316.923C577.37 316.709 577.237 316.507 577.086 316.319Z" fill="#263238"/>
<path d="M776.232 369.707C790.3 305.589 764.672 241.678 764.672 241.678L774.101 236.737L774.723 238.076C796.638 272.162 806.308 312.69 802.143 352.999C794.393 359.836 785.658 365.468 776.232 369.707Z" fill="#FAFAFA"/>
<path d="M713.584 232.908C715.842 234.878 717.657 237.302 718.912 240.022C720.166 242.742 720.831 245.697 720.864 248.693C721.203 254.765 721.279 261.535 725.484 265.929C730.463 271.115 739.666 270.286 744.965 265.42C750.264 260.555 752.15 252.86 751.792 245.675C751.037 231.437 741.042 214.917 728.087 208.939C715.131 202.961 705.457 197.624 682.544 192.853L690.219 230.287C690.219 230.287 710.284 230.287 713.584 232.908Z" fill="#455A64"/>
<path d="M694.8 221.329C695.023 220.388 695.155 219.429 695.196 218.463C695.366 216.426 695.574 213.824 695.838 210.768L695.102 210.882C695.891 212.957 697.047 214.873 698.516 216.539L699.609 217.765L699.289 216.143C698.55 212.263 698.152 208.325 698.101 204.375C697.988 197.556 698.877 190.758 700.741 184.197C702.136 179.162 703.513 176.201 703.343 176.126C702.916 176.763 702.562 177.446 702.287 178.162C701.429 180.065 700.686 182.017 700.062 184.008C697.989 190.601 696.996 197.485 697.12 204.394C697.169 208.406 697.605 212.404 698.421 216.332L699.194 215.936C697.757 214.367 696.614 212.553 695.819 210.58L695.159 208.958L695.159 210.693C695.027 213.767 694.932 216.351 694.838 218.425C694.736 219.39 694.723 220.362 694.8 221.329Z" fill="#263238"/>
<path d="M696.366 196.229C696.752 196.39 697.149 196.522 697.555 196.625C698.347 196.87 699.44 197.209 700.987 197.7C705.156 199.061 709.238 200.68 713.207 202.546C715.734 203.716 718.45 205.092 721.335 206.62C724.431 208.202 727.446 209.939 730.368 211.825C737.064 216.106 742.674 221.884 746.756 228.703C750.706 235.608 752.301 243.611 751.301 251.503C750.853 254.908 749.703 258.183 747.925 261.121C746.256 263.604 743.977 265.617 741.306 266.967C739.155 268.17 736.767 268.891 734.31 269.079C732.442 269.124 730.585 268.777 728.859 268.06C727.741 267.645 726.72 267.003 725.861 266.175C725.582 265.877 725.33 265.555 725.107 265.213C725.192 265.63 725.402 266.012 725.71 266.307C726.547 267.199 727.571 267.895 728.709 268.343C730.487 269.144 732.416 269.556 734.366 269.55C736.926 269.421 739.425 268.725 741.683 267.514C744.486 266.139 746.889 264.068 748.661 261.498C750.538 258.471 751.765 255.086 752.263 251.559C753.34 243.459 751.723 235.228 747.661 228.137C743.504 221.187 737.767 215.314 730.915 210.995C727.959 209.114 724.906 207.389 721.769 205.828C718.865 204.319 716.111 202.98 713.565 201.849C709.542 200.025 705.396 198.488 701.156 197.247C699.648 196.832 698.479 196.531 697.668 196.361C697.241 196.265 696.804 196.221 696.366 196.229Z" fill="#263238"/>
<path d="M747.021 262.969C747.134 262.969 747.643 262.196 748.02 260.706C748.461 258.763 748.544 256.757 748.265 254.784C748.09 251.96 747.02 249.265 745.21 247.09C746.108 249.64 746.802 252.257 747.285 254.916C747.553 257.6 747.464 260.308 747.021 262.969Z" fill="#263238"/>
<path d="M738.081 269.022C739.471 267.032 740.167 264.639 740.061 262.214C740.173 259.815 739.653 257.428 738.553 255.293C738.232 255.293 739.043 258.443 739.081 262.214C739.118 265.986 737.76 268.909 738.081 269.022Z" fill="#263238"/>
<path d="M665.873 199.322C663.987 203.848 662.101 208.902 663.874 213.503C666.118 219.576 673.303 221.857 679.564 223.611C692.067 227.176 704.646 232.06 713.943 241.15C723.24 250.239 728.558 264.364 724.183 276.603C723.379 279.141 722.027 281.47 720.221 283.426C718.415 285.381 716.201 286.915 713.735 287.918C708.078 289.804 701.459 287.636 697.046 283.506C692.633 279.376 691.275 274.397 689.502 268.626C688.477 265.09 686.524 261.893 683.845 259.367C680.959 257.066 676.905 257.274 673.209 257.292C661.89 257.34 650.742 254.539 640.791 249.146L647.542 248.146C644.152 246.49 641.329 243.865 639.433 240.603L643.733 244.167C639.091 232.569 638.11 219.828 640.923 207.657" fill="#455A64"/>
<path d="M641.583 207.506C640.948 210.505 640.563 213.552 640.433 216.615C639.989 225.129 641.068 233.655 643.62 241.791L644.091 241.413L639.094 238.754L638.057 238.208L638.622 239.245C640.969 243.407 644.388 246.864 648.523 249.259L648.674 248.542L642.507 249.108L641.395 249.202L642.319 249.843C647.185 253.135 652.671 255.4 658.443 256.5C661.498 257.099 664.592 257.483 667.702 257.651C670.851 257.877 674.114 257.651 677.301 257.839C678.892 257.896 680.462 258.227 681.94 258.82C683.407 259.444 684.678 260.454 685.617 261.743C687.461 264.547 688.86 267.62 689.766 270.851C690.702 274.264 692.166 277.509 694.104 280.469C696.107 283.54 698.876 286.036 702.137 287.711C704.343 288.756 706.763 289.27 709.203 289.211C711.642 289.152 714.035 288.522 716.187 287.371C720.332 285.041 723.394 281.173 724.711 276.603C726.937 268.026 725.951 258.932 721.939 251.031C718.387 243.921 712.878 237.974 706.06 233.889C702.958 232.145 699.738 230.62 696.423 229.325C693.312 227.93 690.275 226.629 687.315 225.554C681.412 223.385 675.641 222.857 671.229 220.669C669.165 219.717 667.409 218.208 666.156 216.313C665.186 214.674 664.545 212.861 664.27 210.976C663.818 208.341 663.895 205.642 664.496 203.037C664.911 201.264 665.345 200.396 665.288 200.359C664.848 201.195 664.512 202.081 664.289 202.999C663.613 205.622 663.478 208.356 663.893 211.033C664.15 212.987 664.791 214.871 665.778 216.577C667.056 218.563 668.866 220.151 671.002 221.16C675.547 223.46 681.28 224.026 687.107 226.214C690.03 227.232 693.01 228.552 696.122 229.985C699.4 231.301 702.588 232.831 705.664 234.568C712.32 238.605 717.69 244.452 721.147 251.427C723.001 255.176 724.206 259.213 724.711 263.365C724.869 264.426 724.951 265.497 724.956 266.571C725.022 267.657 725.022 268.747 724.956 269.833C724.893 272.017 724.525 274.182 723.862 276.264C722.617 280.593 719.717 284.258 715.791 286.466C713.77 287.55 711.522 288.144 709.229 288.2C706.936 288.256 704.662 287.772 702.59 286.787C699.486 285.184 696.848 282.807 694.934 279.885C693.049 276.975 691.619 273.795 690.69 270.455C689.769 267.103 688.317 263.92 686.391 261.026C685.352 259.613 683.951 258.506 682.336 257.82C680.755 257.191 679.077 256.84 677.376 256.783C674.057 256.632 670.889 256.783 667.759 256.613C664.694 256.459 661.643 256.087 658.631 255.501C652.972 254.434 647.585 252.241 642.79 249.051L642.601 249.787L648.768 249.183L649.994 249.07L648.919 248.448C644.888 246.145 641.547 242.804 639.245 238.773L638.792 239.245L643.808 241.847L644.506 242.224L644.261 241.47C641.676 233.409 640.508 224.961 640.81 216.502C640.81 213.541 641.168 211.259 641.338 209.713L641.564 207.978C641.583 207.821 641.59 207.663 641.583 207.506Z" fill="#263238"/>
<path d="M720.882 283.204C722.299 281.541 723.094 279.438 723.131 277.253C723.169 275.069 722.448 272.94 721.09 271.229C721.659 273.189 722.006 275.207 722.127 277.245C721.922 279.269 721.505 281.266 720.882 283.204Z" fill="#263238"/>
<path d="M712.904 288.201C713.017 288.201 713.602 287.616 714.3 286.315C715.159 284.656 715.678 282.841 715.827 280.978C716.097 278.337 715.586 275.675 714.356 273.322C714.017 273.322 715.092 276.773 714.847 280.865C714.487 283.378 713.835 285.84 712.904 288.201Z" fill="#263238"/>
<path d="M700.571 286.485C702.262 285.045 703.554 283.194 704.324 281.11C705.093 279.026 705.314 276.779 704.965 274.585C704.682 274.585 704.644 277.49 703.4 280.771C702.155 284.052 700.345 286.297 700.571 286.485Z" fill="#263238"/>
</svg>
