<svg width="185" height="173" viewBox="0 0 185 173" fill="none" xmlns="http://www.w3.org/2000/svg">
<path fill-rule="evenodd" clip-rule="evenodd" d="M54.5003 124.266L51.7856 127.117C51.1837 127.749 51.2535 128.774 51.9501 129.301C78.0737 149.073 115.442 146.495 138.57 122.202L141.423 124.918C142.055 125.52 143.08 125.45 143.607 124.753C163.378 98.629 160.802 61.261 136.509 38.1314L139.223 35.2801C139.825 34.6478 139.755 33.6229 139.059 33.0964C112.935 13.3253 75.5675 15.9023 52.4377 40.196L49.5855 37.4801C48.9532 36.8782 47.9291 36.9472 47.4018 37.6445C27.6305 63.7675 30.2069 101.137 54.5003 124.266Z" fill="#4F97CA"/>
<path d="M138.781 103.732C138.354 103.733 137.927 103.711 137.502 103.667C132.883 103.206 129.514 98.0903 125.582 91.4543L125.524 91.352C112.776 89.4926 99.9128 88.5353 87.0302 88.4871C80.2992 88.4871 73.7509 88.7867 67.5534 89.3714C67.166 89.9926 66.7202 90.7454 66.3109 91.447C62.379 98.0903 59.0025 103.206 54.3836 103.667C53.9588 103.711 53.5318 103.733 53.1047 103.732C47.7403 103.732 40.0738 100.356 37.0262 94.9112C34.6583 90.6577 36.902 86.2799 38.8825 82.4284C39.8545 80.5282 40.8631 78.5696 41.1262 77.0056C41.3016 75.9386 40.5781 75.0469 38.3198 72.8983C36.6169 71.2685 34.6656 69.4341 33.6424 66.8396C31.9103 62.5057 33.942 56.3667 36.5658 52.5006C39.3356 48.4079 42.946 46.1569 46.739 46.1569C49.1787 46.1065 51.591 46.6786 53.7482 47.8193C55.9054 48.9599 57.7364 50.6314 59.0683 52.676L59.1268 52.7783L59.1779 52.8806C60.3473 55.2193 61.6189 56.1547 62.2767 56.5348C74.5 58.0839 86.8048 58.9039 99.1256 58.9904C104.073 58.9904 109.014 58.8369 113.947 58.5007C116.354 58.34 118.754 58.1353 121.146 57.8868C125.458 57.441 130.566 57.156 132.678 52.9098L132.73 52.8075L132.788 52.7052C134.12 50.6606 135.951 48.9891 138.108 47.8485C140.265 46.7079 142.678 46.1357 145.117 46.1861C148.91 46.1861 152.521 48.4371 155.291 52.5298C157.907 56.3959 159.939 62.535 158.214 66.8688C157.176 69.4633 155.239 71.2977 153.537 72.9275C151.278 75.0762 150.555 75.9678 150.73 77.0348C150.993 78.5988 152.002 80.5575 152.974 82.4576C154.954 86.3092 157.198 90.6869 154.83 94.9404C151.812 100.378 144.145 103.732 138.781 103.732Z" fill="white" stroke="#B2B2B2" stroke-width="1.06014" stroke-linecap="round" stroke-linejoin="round"/>
<path d="M154.246 66.7637C156.059 62.2325 151.074 51.365 144.745 51.365C142.98 51.3103 141.229 51.7031 139.656 52.5069C138.083 53.3106 136.739 54.4992 135.749 55.9619C133.03 61.3994 129.405 61.8525 129.405 61.8525L129.354 62.0206C103.139 65.8721 79.0866 63.7965 60.8814 61.6113C59.6536 61.1509 57.2857 59.7989 55.3636 55.9619C54.372 54.497 53.0255 53.3071 51.4498 52.5033C49.874 51.6994 48.1203 51.3078 46.3523 51.365C40.0086 51.365 35.0243 62.2325 36.8514 66.7637C38.6785 71.295 45.4607 73.5606 44.5544 78.998C43.6482 84.4354 37.7576 90.3187 40.0232 94.3968C42.2888 98.4749 49.0857 101.647 53.6169 101.194C57.863 100.77 62.9058 89.5952 65.0106 87.0811C87.8055 84.6839 110.593 86.6499 127.505 89.164C129.997 93.2713 134.016 100.857 137.495 101.194C142.026 101.647 148.823 98.4749 151.089 94.3968C153.355 90.3187 147.435 84.4354 146.558 78.998C145.681 73.5606 152.434 71.2949 154.246 66.7637Z" fill="#4F97CA"/>
<path d="M64.6307 75.792L63.3379 75.6434C63.624 73.8281 63.1845 72.1298 62.2464 70.5496C61.3083 68.9694 60.3386 67.8931 58.6079 67.275C56.8773 66.6569 54.8272 66.3563 53.1003 66.9847C51.3734 67.6132 49.9201 68.825 48.9915 70.4108L48.0565 69.9197C49.1022 68.1126 50.7472 66.7283 52.7064 66.0068C54.6656 65.2853 56.8155 65.272 58.7835 65.9693C60.7515 66.6665 61.9061 68.0279 62.974 69.8219C64.042 71.616 64.9559 73.7296 64.6307 75.792Z" fill="#0E6975"/>
<path d="M63.0515 75.8517L63.0918 75.6129C63.3669 73.8539 63.0193 72.054 62.1092 70.5238C61.199 68.9937 59.7833 67.8292 58.1063 67.2312C56.4293 66.6333 54.5962 66.6395 52.9233 67.2486C51.2503 67.8578 49.8425 69.0318 48.9426 70.568L48.8249 70.7664L47.4628 70.0501L47.5906 69.8314C48.6648 67.9722 50.3566 66.5481 52.3718 65.8066C54.387 65.0651 56.5983 65.0531 58.6214 65.7726C60.6446 66.4922 62.3517 67.8978 63.4461 69.7453C64.5405 71.5928 64.953 73.7653 64.612 75.8853L64.5717 76.1241L63.0515 75.8517ZM57.2532 66.4615C59.2455 66.8915 61.0035 68.0542 62.1789 69.7193C63.3544 71.3843 63.8614 73.4302 63.5997 75.4514L64.1647 75.5423C64.4264 73.5676 64.0023 71.563 62.9634 69.8635C61.9246 68.164 60.3338 66.8726 58.457 66.2051C56.5803 65.5377 54.5313 65.5346 52.6526 66.1965C50.7739 66.8584 49.464 67.9113 48.4201 69.6077L48.7839 69.9715C49.6684 68.5498 50.8269 67.5721 52.3688 66.9194C53.9108 66.2668 55.6168 66.1068 57.2532 66.4615Z" fill="#0E6975"/>
<path d="M63.6678 77.6517L61.882 75.21L62.743 74.5374L63.8831 76.0609L65.3226 74.8367L65.9683 75.7044L63.6678 77.6517ZM62.5479 75.2975L63.7519 76.9421L65.3125 75.617L65.2452 75.5295L63.8024 76.7537L62.6521 75.2134L62.5479 75.2975Z" fill="#0E6975"/>
<path d="M46.6319 73.2181L47.6745 73.3863C47.385 75.2027 47.7394 77.0631 48.6764 78.6458C49.6134 80.2285 51.0741 81.4339 52.8059 82.0536C54.5376 82.6733 56.4315 82.6682 58.1599 82.0393C59.8883 81.4104 61.3425 80.1971 62.2711 78.6094L63.2061 79.1005C62.1605 80.9095 60.5145 82.2953 58.5538 83.0173C56.593 83.7393 54.4414 83.752 52.4723 83.0532C50.5032 82.3543 48.841 80.988 47.7741 79.1915C46.7073 77.3949 46.3032 75.2815 46.6319 73.2181Z" fill="#0E6975"/>
<path d="M45.7878 74.5735L45.1454 73.7058L47.4459 71.7517L49.2317 74.1934L48.3708 74.8661L47.234 73.3425L45.7878 74.5735ZM45.7878 73.7831L45.855 73.8706L47.2945 72.6463L48.4447 74.1867L48.549 74.1026L47.3584 72.458L45.7878 73.7831Z" fill="#0E6975"/>
<path d="M52.0951 71.0766C52.0951 71.0766 51.7095 70.0352 51.9724 69.7723C52.2353 69.5093 52.3361 70.7027 52.7377 70.9174L52.0951 71.0766Z" fill="white"/>
<path d="M58.615 70.7435C58.615 70.7435 59.0049 69.8423 58.7859 69.5984C58.5668 69.3545 58.4207 70.4018 58.0555 70.5726L58.615 70.7435Z" fill="white"/>
<path d="M53.7208 68.7395C53.7208 68.7395 53.9574 67.4483 54.2802 67.4249C54.603 67.4016 54.2379 68.4576 54.4526 68.8447L53.7208 68.7395Z" fill="white"/>
<path d="M56.7108 68.9776C56.7108 68.9776 56.702 67.6631 56.388 67.5871C56.0739 67.5112 56.2507 68.6096 55.9717 68.9557L56.7108 68.9776Z" fill="white"/>
<g opacity="0.5">
<path d="M52.0951 71.0766C52.0951 71.0766 51.7095 70.0352 51.9724 69.7723C52.2353 69.5093 52.3361 70.7027 52.7377 70.9174L52.0951 71.0766Z" fill="white"/>
<path d="M58.6158 70.7435C58.6158 70.7435 59.0058 69.8423 58.7867 69.5984C58.5676 69.3545 58.4216 70.4018 58.0564 70.5726L58.6158 70.7435Z" fill="white"/>
<path d="M53.7205 68.7395C53.7205 68.7395 53.9571 67.4483 54.2799 67.4249C54.6027 67.4016 54.2375 68.4576 54.4522 68.8447L53.7205 68.7395Z" fill="white"/>
<path d="M56.7108 68.9776C56.7108 68.9776 56.702 67.6631 56.388 67.5871C56.0739 67.5112 56.2507 68.6096 55.9717 68.9557L56.7108 68.9776Z" fill="white"/>
</g>
<g opacity="0.5">
<path d="M52.0951 71.0766C52.0951 71.0766 51.7095 70.0352 51.9724 69.7723C52.2353 69.5093 52.3361 70.7027 52.7377 70.9174L52.0951 71.0766Z" fill="#021132"/>
<path d="M58.6158 70.7435C58.6158 70.7435 59.0058 69.8423 58.7867 69.5984C58.5676 69.3545 58.4216 70.4018 58.0564 70.5726L58.6158 70.7435Z" fill="#021132"/>
<path d="M53.7205 68.7395C53.7205 68.7395 53.9571 67.4483 54.2799 67.4249C54.6027 67.4016 54.2375 68.4576 54.4522 68.8447L53.7205 68.7395Z" fill="#021132"/>
<path d="M56.7108 68.9776C56.7108 68.9776 56.702 67.6631 56.388 67.5871C56.0739 67.5112 56.2507 68.6096 55.9717 68.9557L56.7108 68.9776Z" fill="#021132"/>
</g>
<path d="M58.4051 70.2512C58.3246 70.2007 58.2327 70.1711 58.1379 70.165C58.043 70.1589 57.9481 70.1765 57.8618 70.2162C57.8216 70.2328 57.7781 70.2395 57.7348 70.2359C57.6915 70.2323 57.6498 70.2184 57.6129 70.1954C57.5761 70.1724 57.5452 70.141 57.523 70.1037C57.5007 70.0664 57.4877 70.0244 57.4849 69.981C57.444 69.3968 57.2425 68.4737 56.3968 68.2998C55.9045 68.1991 55.4795 68.5102 55.2283 68.7672C55.1996 68.7962 55.1647 68.8183 55.1263 68.832C55.0879 68.8457 55.0469 68.8505 55.0063 68.8461C54.9658 68.8418 54.9267 68.8284 54.8921 68.8069C54.8574 68.7854 54.8281 68.7564 54.8062 68.722C54.7167 68.5653 54.5725 68.4473 54.4012 68.3907C54.23 68.3341 54.0438 68.3428 53.8787 68.4152C53.0432 68.719 52.9 69.74 52.8971 70.3958C52.8967 70.441 52.8849 70.4854 52.8629 70.5249C52.8409 70.5643 52.8094 70.5977 52.7712 70.6218C52.7329 70.6459 52.6893 70.6601 52.6442 70.6629C52.5991 70.6658 52.554 70.6574 52.513 70.6383C52.2472 70.5156 51.9185 70.5521 51.7491 71.278C51.4336 72.6262 52.5816 76.7992 52.5816 76.7992L52.5816 81.9332C54.5805 82.6163 56.7619 82.5315 58.7016 81.6952L58.519 76.6268C59.2362 71.427 59.0259 70.6383 58.4051 70.2512Z" fill="white"/>
<path d="M55.7719 81.3827C55.5579 81.3583 55.3412 81.3722 55.1321 81.4236C54.8677 81.4806 54.526 81.4601 54.4748 80.9957C54.3887 80.2215 55.2227 80.0419 55.5937 80.02C55.9296 80.001 56.6833 80.0784 56.6263 80.8803C56.5883 81.4002 56.1078 81.428 55.7719 81.3827Z" fill="#0E6975"/>
<path d="M53.3982 71.7821C53.3982 72.1677 53.1323 72.3094 52.8037 72.3094C52.4751 72.3094 52.2078 72.1634 52.2078 71.7821C52.2078 71.4009 52.4736 71.0767 52.8037 71.0767C53.1338 71.0767 53.3982 71.3951 53.3982 71.7821Z" fill="#0E6975"/>
<path d="M58.4552 71.6973C58.4552 72.2246 58.0929 72.4159 57.646 72.4159C57.199 72.4159 56.8368 72.2246 56.8368 71.6973C56.8368 71.17 57.199 70.7435 57.646 70.7435C58.0929 70.7435 58.4552 71.17 58.4552 71.6973Z" fill="#0E6975"/>
<path d="M54.7759 69.7532C54.7759 70.2235 54.4838 70.3944 54.1333 70.3944C53.7827 70.3944 53.4921 70.2235 53.4921 69.7532C53.4921 69.2828 53.7842 68.9045 54.1333 68.9045C54.4824 68.9045 54.7759 69.2843 54.7759 69.7532Z" fill="#0E6975"/>
<path d="M56.982 69.8263C56.982 70.2966 56.6899 70.4675 56.3408 70.4675C55.9917 70.4675 55.6981 70.2966 55.6981 69.8263C55.6981 69.356 55.9902 68.9777 56.3408 68.9777C56.6913 68.9777 56.982 69.3574 56.982 69.8263Z" fill="#0E6975"/>
<path d="M56.7859 73.2949C56.7738 73.1327 56.706 72.9776 56.5916 72.8501C56.4815 72.7223 56.3286 72.6283 56.1544 72.5815C56.0061 72.5451 55.8482 72.5525 55.7051 72.6026C55.562 72.6526 55.4414 72.7426 55.3617 72.8586C55.3154 72.7767 55.249 72.7048 55.1674 72.6482C55.0909 72.5969 55.0036 72.5597 54.9105 72.5385C54.8174 72.5173 54.7205 72.5128 54.6253 72.525C54.4461 72.5542 54.2817 72.6319 54.1552 72.7474C54.0212 72.8608 53.9303 73.0078 53.8948 73.1683C53.8534 73.3731 53.8875 73.5841 53.992 73.7706C54.1152 73.9608 54.2884 74.1221 54.4971 74.2411C54.8352 74.4447 55.2743 74.7014 55.2743 74.7014C55.2743 74.7014 55.6804 74.4652 56.0515 74.2976C56.2748 74.2014 56.4687 74.0594 56.6168 73.8835C56.7426 73.7081 56.8018 73.502 56.7859 73.2949Z" fill="#0E6975"/>
<path d="M142.045 75.7314L140.752 75.5828C141.038 73.7675 140.599 72.0693 139.66 70.4891C138.722 68.9088 137.753 67.8326 136.022 67.2145C134.291 66.5964 132.241 66.2958 130.514 66.9242C128.787 67.5526 127.334 68.7644 126.406 70.3502L125.471 69.8592C126.516 68.0521 128.161 66.6678 130.12 65.9463C132.08 65.2247 134.23 65.2114 136.198 65.9087C138.166 66.606 139.32 67.9673 140.388 69.7614C141.456 71.5554 142.37 73.6691 142.045 75.7314Z" fill="#0E6975"/>
<path d="M140.466 75.7913L140.506 75.5525C140.781 73.7934 140.433 71.9936 139.523 70.4634C138.613 68.9333 137.197 67.7688 135.52 67.1708C133.843 66.5729 132.01 66.579 130.337 67.1882C128.664 67.7974 127.257 68.9713 126.357 70.5076L126.239 70.706L124.877 69.9896L125.005 69.771C126.079 67.9118 127.771 66.4877 129.786 65.7462C131.801 65.0047 134.012 64.9926 136.035 65.7122C138.059 66.4318 139.766 67.8374 140.86 69.6849C141.955 71.5323 142.367 73.7048 142.026 75.8249L141.986 76.0637L140.466 75.7913ZM134.667 66.401C136.66 66.8311 138.418 67.9938 139.593 69.6589C140.768 71.3239 141.276 73.3698 141.014 75.391L141.579 75.4818C141.84 73.5072 141.416 71.5026 140.378 69.8031C139.339 68.1036 137.748 66.8121 135.871 66.1447C133.994 65.4772 131.945 65.4742 130.067 66.1361C128.188 66.798 126.878 67.8508 125.834 69.5473L126.198 69.9111C127.082 68.4894 128.241 67.5117 129.783 66.859C131.325 66.2063 133.031 66.0464 134.667 66.401Z" fill="#0E6975"/>
<path d="M141.082 77.7554L139.296 75.3136L140.157 74.641L141.297 76.1645L142.737 74.9403L143.382 75.808L141.082 77.7554ZM139.962 75.4011L141.166 77.0457L142.727 75.7206L142.659 75.6332L141.216 76.8574L140.066 75.317L139.962 75.4011Z" fill="#0E6975"/>
<path d="M124.046 73.1577L125.089 73.3259C124.799 75.1422 125.154 77.0027 126.091 78.5854C127.028 80.1681 128.488 81.3735 130.22 81.9932C131.952 82.6129 133.846 82.6078 135.574 81.9789C137.302 81.35 138.757 80.1367 139.685 78.549L140.62 79.0401C139.575 80.8491 137.929 82.2348 135.968 82.9569C134.007 83.6789 131.856 83.6916 129.886 82.9927C127.917 82.2939 126.255 80.9276 125.188 79.1311C124.121 77.3345 123.717 75.2211 124.046 73.1577Z" fill="#0E6975"/>
<path d="M123.202 74.5132L122.559 73.6455L124.86 71.6914L126.646 74.1331L125.785 74.8058L124.648 73.2822L123.202 74.5132ZM123.202 73.7228L123.269 73.8103L124.709 72.586L125.859 74.1264L125.963 74.0423L124.772 72.3977L123.202 73.7228Z" fill="#0E6975"/>
<path d="M129.509 71.0162C129.509 71.0162 129.123 69.9747 129.386 69.7118C129.649 69.4489 129.75 70.6422 130.152 70.8569L129.509 71.0162Z" fill="white"/>
<path d="M136.029 70.6831C136.029 70.6831 136.419 69.7819 136.2 69.538C135.981 69.2941 135.835 70.3413 135.47 70.5122L136.029 70.6831Z" fill="white"/>
<path d="M131.135 68.6791C131.135 68.6791 131.371 67.3879 131.694 67.3645C132.017 67.3411 131.652 68.3972 131.867 68.7842L131.135 68.6791Z" fill="white"/>
<path d="M134.125 68.9172C134.125 68.9172 134.116 67.6027 133.802 67.5267C133.488 67.4507 133.665 68.5491 133.386 68.8953L134.125 68.9172Z" fill="white"/>
<g opacity="0.5">
<path d="M129.509 71.0162C129.509 71.0162 129.123 69.9747 129.386 69.7118C129.649 69.4489 129.75 70.6422 130.152 70.8569L129.509 71.0162Z" fill="white"/>
<path d="M136.03 70.6831C136.03 70.6831 136.42 69.7819 136.201 69.538C135.982 69.2941 135.835 70.3413 135.47 70.5122L136.03 70.6831Z" fill="white"/>
<path d="M131.134 68.679C131.134 68.679 131.371 67.3878 131.694 67.3644C132.017 67.341 131.651 68.3971 131.866 68.7841L131.134 68.679Z" fill="white"/>
<path d="M134.125 68.9172C134.125 68.9172 134.116 67.6027 133.802 67.5267C133.488 67.4507 133.665 68.5491 133.386 68.8953L134.125 68.9172Z" fill="white"/>
</g>
<g opacity="0.5">
<path d="M129.509 71.0162C129.509 71.0162 129.123 69.9747 129.386 69.7118C129.649 69.4489 129.75 70.6422 130.152 70.8569L129.509 71.0162Z" fill="#021132"/>
<path d="M136.03 70.6831C136.03 70.6831 136.42 69.7819 136.201 69.538C135.982 69.2941 135.835 70.3413 135.47 70.5122L136.03 70.6831Z" fill="#021132"/>
<path d="M131.134 68.679C131.134 68.679 131.371 67.3878 131.694 67.3644C132.017 67.341 131.651 68.3971 131.866 68.7841L131.134 68.679Z" fill="#021132"/>
<path d="M134.125 68.9172C134.125 68.9172 134.116 67.6027 133.802 67.5267C133.488 67.4507 133.665 68.5491 133.386 68.8953L134.125 68.9172Z" fill="#021132"/>
</g>
<path d="M135.819 70.1909C135.739 70.1404 135.647 70.1108 135.552 70.1047C135.457 70.0986 135.362 70.1162 135.276 70.1559C135.236 70.1724 135.192 70.1792 135.149 70.1756C135.106 70.172 135.064 70.1581 135.027 70.1351C134.99 70.1121 134.959 70.0807 134.937 70.0434C134.915 70.0061 134.902 69.9641 134.899 69.9207C134.858 69.3365 134.657 68.4134 133.811 68.2395C133.319 68.1388 132.894 68.4499 132.642 68.7069C132.614 68.7359 132.579 68.758 132.54 68.7717C132.502 68.7854 132.461 68.7902 132.42 68.7858C132.38 68.7815 132.341 68.7681 132.306 68.7466C132.271 68.7251 132.242 68.6961 132.22 68.6617C132.131 68.505 131.987 68.387 131.815 68.3304C131.644 68.2738 131.458 68.2825 131.293 68.3549C130.457 68.6587 130.314 69.6797 130.311 70.3355C130.311 70.3807 130.299 70.4251 130.277 70.4646C130.255 70.504 130.223 70.5374 130.185 70.5615C130.147 70.5856 130.103 70.5998 130.058 70.6026C130.013 70.6055 129.968 70.597 129.927 70.578C129.661 70.4553 129.333 70.4918 129.163 71.2177C128.848 72.5659 129.996 76.7389 129.996 76.7389L129.996 81.8729C131.995 82.556 134.176 82.4712 136.116 81.6349L135.933 76.5665C136.65 71.3667 136.44 70.578 135.819 70.1909Z" fill="white"/>
<path d="M133.186 81.3223C132.972 81.2979 132.755 81.3118 132.546 81.3632C132.282 81.4202 131.94 81.3997 131.889 80.9352C131.803 80.1611 132.637 79.9814 133.008 79.9595C133.344 79.9406 134.097 80.018 134.04 80.8198C134.002 81.3398 133.522 81.3676 133.186 81.3223Z" fill="#0E6975"/>
<path d="M130.812 71.7216C130.812 72.1072 130.546 72.2489 130.218 72.2489C129.889 72.2489 129.622 72.1028 129.622 71.7216C129.622 71.3404 129.888 71.0161 130.218 71.0161C130.548 71.0161 130.812 71.3345 130.812 71.7216Z" fill="#0E6975"/>
<path d="M135.869 71.6369C135.869 72.1642 135.507 72.3555 135.06 72.3555C134.613 72.3555 134.251 72.1642 134.251 71.6369C134.251 71.1096 134.613 70.6831 135.06 70.6831C135.507 70.6831 135.869 71.1096 135.869 71.6369Z" fill="#0E6975"/>
<path d="M132.189 69.6929C132.189 70.1632 131.897 70.3341 131.546 70.3341C131.196 70.3341 130.905 70.1632 130.905 69.6929C130.905 69.2225 131.197 68.8442 131.546 68.8442C131.895 68.8442 132.189 69.224 132.189 69.6929Z" fill="#0E6975"/>
<path d="M134.396 69.7659C134.396 70.2362 134.104 70.4071 133.755 70.4071C133.406 70.4071 133.112 70.2362 133.112 69.7659C133.112 69.2955 133.404 68.9172 133.755 68.9172C134.105 68.9172 134.396 69.297 134.396 69.7659Z" fill="#0E6975"/>
<path d="M134.2 73.2345C134.188 73.0723 134.12 72.9172 134.006 72.7897C133.896 72.6619 133.743 72.5679 133.568 72.521C133.42 72.4847 133.262 72.4921 133.119 72.5421C132.976 72.5922 132.855 72.6821 132.776 72.7982C132.729 72.7163 132.663 72.6444 132.581 72.5878C132.505 72.5365 132.418 72.4992 132.325 72.4781C132.231 72.4569 132.135 72.4523 132.039 72.4646C131.86 72.4937 131.696 72.5715 131.569 72.687C131.435 72.8003 131.344 72.9473 131.309 73.1079C131.268 73.3126 131.302 73.5237 131.406 73.7102C131.529 73.9003 131.702 74.0617 131.911 74.1807C132.249 74.3843 132.688 74.6409 132.688 74.6409C132.688 74.6409 133.094 74.4048 133.466 74.2371C133.689 74.1409 133.883 73.9989 134.031 73.8231C134.157 73.6476 134.216 73.4415 134.2 73.2345Z" fill="#0E6975"/>
<path d="M114.936 84.9452C114.361 84.9452 113.885 84.748 113.507 84.3536C113.145 83.9428 112.964 83.2773 112.964 82.3571L112.964 73.1388C112.964 72.9416 112.866 72.843 112.669 72.843L111.954 72.843C111.691 72.843 111.559 72.7444 111.559 72.5472C111.559 72.4158 111.633 72.3007 111.781 72.2022C112.324 71.8242 112.759 71.4216 113.088 70.9944C113.416 70.5507 113.704 69.951 113.95 69.1951C114.065 68.85 114.205 68.6775 114.369 68.6775C114.55 68.6775 114.64 68.8089 114.64 69.0719L114.64 71.8078C114.64 72.0378 114.755 72.1529 114.986 72.1529L116.588 72.1529C116.851 72.1529 116.982 72.2679 116.982 72.4979C116.982 72.728 116.851 72.843 116.588 72.843L114.986 72.843C114.755 72.843 114.64 72.958 114.64 73.1881L114.64 82.3818C114.64 82.7433 114.698 83.0309 114.813 83.2445C114.928 83.4417 115.142 83.5402 115.454 83.5402C115.799 83.5402 116.078 83.3677 116.292 83.0226C116.522 82.6776 116.67 82.1189 116.736 81.3466C116.768 81.1165 116.875 81.0015 117.056 81.0015C117.253 81.0015 117.352 81.1247 117.352 81.3712C117.302 82.6365 117.04 83.5485 116.563 84.1071C116.103 84.6658 115.561 84.9452 114.936 84.9452Z" fill="#0A4A52"/>
<path d="M107.284 84.9452C106.495 84.9452 105.788 84.6823 105.164 84.1565C104.54 83.6307 104.038 82.8912 103.661 81.9382C103.299 80.9687 103.118 79.8513 103.118 78.586C103.118 77.2879 103.307 76.1459 103.685 75.16C104.063 74.174 104.581 73.4017 105.238 72.843C105.895 72.2843 106.627 72.005 107.432 72.005C108.401 72.005 109.182 72.4076 109.773 73.2128C110.381 74.0015 110.685 75.2914 110.685 77.0825C110.685 77.6248 110.48 77.8959 110.069 77.8959L105.386 77.8959C105.057 77.8959 104.893 78.0848 104.893 78.4628C104.893 80.2046 105.148 81.5109 105.657 82.3818C106.166 83.2527 106.815 83.6882 107.604 83.6882C108.229 83.6882 108.738 83.4663 109.132 83.0227C109.527 82.579 109.847 81.8313 110.094 80.7797C110.143 80.5989 110.25 80.5086 110.414 80.5086C110.611 80.5086 110.685 80.6729 110.636 81.0015C110.373 82.464 109.954 83.491 109.379 84.0825C108.804 84.6577 108.105 84.9452 107.284 84.9452Z" fill="#0A4A52"/>
<path d="M92.3412 84.7234C92.0947 84.7234 91.9714 84.633 91.9714 84.4522C91.9714 84.3044 92.0782 84.2058 92.2919 84.1565L92.8588 84.0579C93.2038 83.9922 93.4257 83.9018 93.5243 83.7868C93.6393 83.6717 93.6968 83.4417 93.6968 83.0966L93.6968 68.6036C93.6968 68.2585 93.6393 68.0285 93.5243 67.9134C93.4257 67.7984 93.2038 67.708 92.8588 67.6423L92.2919 67.5437C92.0782 67.4944 91.9714 67.3958 91.9714 67.2479C91.9714 67.0672 92.0947 66.9768 92.3412 66.9768L97.4926 66.9768C98.4621 66.9768 99.3165 67.1904 100.056 67.6177C100.795 68.0285 101.371 68.6036 101.781 69.343C102.192 70.0825 102.398 70.9369 102.398 71.9064C102.398 72.843 102.192 73.6728 101.781 74.3959C101.371 75.1189 100.804 75.6858 100.081 76.0966C99.3576 76.4909 98.5196 76.6881 97.5665 76.6881L95.7919 76.6881C95.5618 76.6881 95.4468 76.8031 95.4468 77.0332L95.4468 82.998C95.4468 83.3431 95.5125 83.5814 95.644 83.7128C95.7754 83.8278 96.0712 83.9264 96.5313 84.0086L97.4433 84.1565C97.624 84.1893 97.7144 84.2797 97.7144 84.4276C97.7144 84.6248 97.5912 84.7234 97.3447 84.7234L92.3412 84.7234ZM95.4468 74.7163C95.4468 75.62 95.9973 76.0719 97.0982 76.0719C98.1663 76.0719 99.0043 75.694 99.6123 74.9381C100.237 74.1822 100.549 73.147 100.549 71.8325C100.549 70.485 100.237 69.4416 99.6123 68.7022C98.9879 67.9627 98.1006 67.593 96.9503 67.593C95.948 67.593 95.4468 67.9216 95.4468 68.5789L95.4468 74.7163Z" fill="#0A4A52"/>
<path d="M87.4737 84.9452C86.685 84.9452 85.9784 84.6823 85.354 84.1565C84.7296 83.6307 84.2284 82.8912 83.8505 81.9382C83.489 80.9687 83.3082 79.8513 83.3082 78.586C83.3082 77.2879 83.4972 76.1459 83.8751 75.16C84.2531 74.174 84.7707 73.4017 85.428 72.843C86.0852 72.2843 86.8165 72.005 87.6216 72.005C88.5911 72.005 89.3716 72.4076 89.9632 73.2128C90.5712 74.0015 90.8752 75.2914 90.8752 77.0825C90.8752 77.6248 90.6698 77.8959 90.259 77.8959L85.5758 77.8959C85.2472 77.8959 85.0829 78.0848 85.0829 78.4628C85.0829 80.2046 85.3376 81.5109 85.847 82.3818C86.3564 83.2527 87.0054 83.6882 87.7942 83.6882C88.4186 83.6882 88.928 83.4663 89.3223 83.0227C89.7167 82.579 90.0371 81.8313 90.2836 80.7797C90.3329 80.5989 90.4397 80.5086 90.604 80.5086C90.8012 80.5086 90.8752 80.6729 90.8259 81.0015C90.563 82.464 90.1439 83.491 89.5688 84.0825C88.9937 84.6577 88.2953 84.9452 87.4737 84.9452Z" fill="#0A4A52"/>
<path d="M81.798 84.9452C80.3684 84.9452 79.4564 84.0086 79.062 82.1353L78.4951 79.3994C78.3144 78.5121 78.109 77.8384 77.8789 77.3783C77.6653 76.9182 77.3613 76.606 76.967 76.4416C76.589 76.2773 76.0632 76.1952 75.3895 76.1952C75.1594 76.1952 74.9787 76.2609 74.8472 76.3923C74.7158 76.5074 74.6501 76.6553 74.6501 76.836L74.6501 82.998C74.6501 83.3431 74.7158 83.5814 74.8472 83.7128C74.9787 83.8278 75.2745 83.9264 75.7346 84.0086L76.6465 84.1565C76.8273 84.1893 76.9177 84.2797 76.9177 84.4276C76.9177 84.6248 76.7944 84.7234 76.548 84.7234L71.5444 84.7234C71.2979 84.7234 71.1747 84.633 71.1747 84.4522C71.1747 84.3044 71.2815 84.2058 71.4951 84.1565L72.062 84.0579C72.4071 83.9922 72.6289 83.9018 72.7275 83.7868C72.8425 83.6717 72.9 83.4417 72.9 83.0966L72.9 68.6036C72.9 68.2585 72.8425 68.0285 72.7275 67.9134C72.6289 67.7984 72.4071 67.708 72.062 67.6423L71.4951 67.5437C71.2815 67.4944 71.1747 67.3958 71.1747 67.2479C71.1747 67.0672 71.2979 66.9768 71.5444 66.9768L76.548 66.9768C77.5174 66.9768 78.3801 67.1658 79.136 67.5437C79.8919 67.9216 80.4834 68.4475 80.9107 69.1212C81.3379 69.7785 81.5515 70.5426 81.5515 71.4134C81.5515 72.4487 81.2393 73.3853 80.6149 74.2233C79.9905 75.0449 79.2017 75.6283 78.2487 75.9733C78.1336 76.0062 78.0679 76.0637 78.0515 76.1459C78.0515 76.2116 78.109 76.2691 78.224 76.3184C78.7498 76.5649 79.1606 76.91 79.4564 77.3536C79.7686 77.7973 80.0069 78.3888 80.1712 79.1283L80.7135 81.6424C80.8942 82.4968 81.1078 83.1048 81.3543 83.4663C81.6008 83.8278 81.913 84.0086 82.2909 84.0086C82.4224 84.0086 82.5374 83.9922 82.636 83.9593C82.751 83.91 82.8907 83.8278 83.055 83.7128C83.1865 83.6306 83.3097 83.6142 83.4247 83.6635C83.5398 83.6964 83.5973 83.7785 83.5973 83.91C83.5973 84.1893 83.4165 84.4358 83.055 84.6494C82.6935 84.8466 82.2745 84.9452 81.798 84.9452ZM76.3015 75.579C77.4188 75.579 78.2651 75.2092 78.8402 74.4698C79.4153 73.7139 79.7029 72.7116 79.7029 71.4627C79.7029 70.2468 79.366 69.3019 78.6923 68.6282C78.035 67.9381 77.1231 67.593 75.9564 67.593C75.0855 67.593 74.6501 67.9216 74.6501 68.5789L74.6501 74.2233C74.6501 75.1271 75.2005 75.579 76.3015 75.579Z" fill="#0A4A52"/>
<path d="M88.5554 75.9037C88.7403 75.3633 88.4521 74.7753 87.9117 74.5904C87.3714 74.4055 86.7834 74.6937 86.5985 75.2341C86.4136 75.7745 86.7017 76.3624 87.2421 76.5473C87.7825 76.7322 88.3705 76.4441 88.5554 75.9037Z" fill="#4F97CA"/>
<path d="M86.4945 74.5504C86.5251 74.614 86.5362 74.6852 86.5263 74.755C86.5165 74.8248 86.4862 74.8902 86.4392 74.9428C86.3922 74.9954 86.3307 75.0329 86.2624 75.0506C86.1941 75.0682 86.1221 75.0652 86.0556 75.042C85.989 75.0188 85.9308 74.9763 85.8883 74.92C85.8458 74.8637 85.821 74.796 85.817 74.7256C85.813 74.6552 85.8299 74.5852 85.8656 74.5244C85.9014 74.4636 85.9544 74.4148 86.0179 74.3841C86.0601 74.3637 86.1059 74.3518 86.1527 74.3491C86.1995 74.3464 86.2464 74.353 86.2907 74.3684C86.3349 74.3839 86.3757 74.4079 86.4107 74.4391C86.4457 74.4704 86.4741 74.5082 86.4945 74.5504Z" fill="#4F97CA"/>
<path d="M88.1628 73.7485C88.1931 73.8118 88.204 73.8826 88.194 73.9521C88.1841 74.0216 88.1538 74.0866 88.107 74.1389C88.0601 74.1911 87.9988 74.2284 87.9309 74.2459C87.8629 74.2633 87.7912 74.2603 87.725 74.2371C87.6588 74.2139 87.6009 74.1716 87.5586 74.1155C87.5164 74.0595 87.4918 73.9921 87.4878 73.9221C87.4838 73.852 87.5006 73.7823 87.5362 73.7218C87.5718 73.6613 87.6245 73.6127 87.6877 73.5821C87.7298 73.5617 87.7755 73.5499 87.8222 73.5472C87.8689 73.5445 87.9156 73.5511 87.9598 73.5666C88.0039 73.582 88.0446 73.6061 88.0794 73.6373C88.1143 73.6685 88.1426 73.7063 88.1628 73.7485Z" fill="#4F97CA"/>
<path d="M87.2044 73.8982C87.2351 73.9617 87.2461 74.0329 87.2363 74.1028C87.2265 74.1726 87.1961 74.238 87.1492 74.2906C87.1022 74.3432 87.0407 74.3807 86.9724 74.3983C86.9041 74.416 86.8321 74.413 86.7655 74.3898C86.6989 74.3665 86.6407 74.3241 86.5983 74.2678C86.5558 74.2114 86.531 74.1438 86.527 74.0734C86.5229 74.003 86.5398 73.933 86.5756 73.8722C86.6114 73.8114 86.6643 73.7625 86.7278 73.7318C86.77 73.7114 86.8159 73.6996 86.8627 73.6969C86.9095 73.6942 86.9564 73.7008 87.0006 73.7162C87.0449 73.7317 87.0857 73.7557 87.1207 73.7869C87.1556 73.8181 87.1841 73.856 87.2044 73.8982Z" fill="#4F97CA"/>
<path d="M108.567 75.9037C108.752 75.3633 108.464 74.7753 107.923 74.5904C107.383 74.4055 106.795 74.6937 106.61 75.2341C106.425 75.7745 106.713 76.3624 107.254 76.5473C107.794 76.7322 108.382 76.4441 108.567 75.9037Z" fill="#4F97CA"/>
<path d="M106.506 74.5504C106.537 74.614 106.548 74.6852 106.538 74.755C106.528 74.8248 106.498 74.8902 106.451 74.9428C106.404 74.9954 106.342 75.0329 106.274 75.0506C106.206 75.0682 106.134 75.0652 106.067 75.042C106.001 75.0188 105.942 74.9763 105.9 74.92C105.858 74.8637 105.833 74.796 105.829 74.7256C105.825 74.6552 105.842 74.5852 105.877 74.5244C105.913 74.4636 105.966 74.4148 106.03 74.3841C106.072 74.3637 106.118 74.3518 106.164 74.3491C106.211 74.3464 106.258 74.353 106.302 74.3684C106.347 74.3839 106.387 74.4079 106.422 74.4391C106.457 74.4704 106.486 74.5082 106.506 74.5504Z" fill="#4F97CA"/>
<path d="M108.175 73.7485C108.205 73.8118 108.216 73.8826 108.206 73.9521C108.196 74.0216 108.166 74.0866 108.119 74.1389C108.072 74.1911 108.011 74.2284 107.943 74.2459C107.875 74.2633 107.803 74.2603 107.737 74.2371C107.67 74.2139 107.613 74.1716 107.57 74.1155C107.528 74.0595 107.503 73.9921 107.499 73.9221C107.495 73.852 107.512 73.7823 107.548 73.7218C107.583 73.6613 107.636 73.6127 107.699 73.5821C107.741 73.5617 107.787 73.5499 107.834 73.5472C107.881 73.5445 107.927 73.5511 107.972 73.5666C108.016 73.582 108.056 73.6061 108.091 73.6373C108.126 73.6685 108.154 73.7063 108.175 73.7485Z" fill="#4F97CA"/>
<path d="M107.216 73.8982C107.247 73.9617 107.258 74.0329 107.248 74.1028C107.238 74.1726 107.208 74.238 107.161 74.2906C107.114 74.3432 107.052 74.3807 106.984 74.3983C106.916 74.416 106.844 74.413 106.777 74.3898C106.711 74.3665 106.652 74.3241 106.61 74.2678C106.568 74.2114 106.543 74.1438 106.539 74.0734C106.535 74.003 106.552 73.933 106.587 73.8722C106.623 73.8114 106.676 73.7625 106.74 73.7318C106.782 73.7114 106.828 73.6996 106.874 73.6969C106.921 73.6942 106.968 73.7008 107.012 73.7162C107.057 73.7317 107.097 73.7557 107.132 73.7869C107.167 73.8181 107.196 73.856 107.216 73.8982Z" fill="#4F97CA"/>
<path d="M69.2431 133.814C68.6389 133.912 68.0301 133.979 67.4191 134.014C66.9213 134.002 66.4289 133.839 65.9276 133.71L66.3972 133.367C66.3972 133.367 65.166 133.434 64.7667 133.367C64.2215 133.276 63.7272 132.977 63.2224 132.725L63.831 132.282C63.831 132.282 62.357 132.138 61.8962 131.955C61.6289 131.848 61.4266 131.621 61.1927 131.438L61.8628 131.246C61.8628 131.246 60.1901 130.367 59.7187 129.948C58.8393 129.176 58.3837 127.932 57.9598 126.606C57.9598 126.606 59.5024 127.216 61.9701 128.441C62.4204 128.664 63.6569 129.536 63.6569 129.536L63.4264 128.597C64.0315 128.773 64.7122 129.193 65.3788 129.45C65.8519 129.626 67.157 130.43 67.157 130.43L66.9495 129.786C67.5545 129.902 68.2 129.929 68.842 130.096C69.3345 130.224 70.7381 130.838 70.7381 130.838L70.1366 129.888C71.4874 130.034 72.6113 130.442 74.1556 130.43L74.1556 133.976C72.3531 134.266 70.5215 134.33 68.7031 134.168L69.2431 133.814Z" fill="#5C5C5C"/>
<path d="M71.5471 123.393C70.0099 126.263 71.8426 130.437 72.8892 133.685C72.8892 133.685 71.7758 134.213 71.5366 135.747C71.5183 135.874 71.5278 136.004 71.5644 136.127C71.6009 136.251 71.6637 136.365 71.7483 136.462C71.833 136.558 71.9376 136.636 72.055 136.689C72.1723 136.741 72.2997 136.768 72.4283 136.767L75.6946 136.767C75.8138 136.768 75.9321 136.745 76.0422 136.699C76.1522 136.653 76.2518 136.585 76.3348 136.5C76.5984 136.242 76.7807 135.913 76.8591 135.553C76.9376 135.193 76.9088 134.817 76.7763 134.473C76.7763 134.473 80.5913 135.62 82.5806 134.799C86.4501 133.202 77.1844 122.798 77.1844 122.798L75.7772 121.463C75.7772 121.463 72.5796 121.463 71.5471 123.393Z" fill="white"/>
<path opacity="0.2" d="M78.3895 134.852C76.6482 134.02 76.103 131.83 76.0115 132.37C75.9007 133.003 76.7766 134.481 76.7766 134.481L78.3895 134.852Z" fill="black"/>
<path opacity="0.2" d="M75.4364 133.485C74.9269 133.305 74.3747 133.285 73.8534 133.427C73.8267 133.434 73.7983 133.432 73.7731 133.421C73.7479 133.409 73.7275 133.389 73.7155 133.364C73.7036 133.339 73.7008 133.311 73.7077 133.284C73.7146 133.257 73.7307 133.234 73.7532 133.218C74.1542 132.913 74.819 132.637 75.5543 133.283C75.5774 133.3 75.5933 133.325 75.599 133.353C75.6047 133.382 75.5999 133.411 75.5853 133.436C75.5708 133.461 75.5476 133.48 75.5201 133.489C75.4927 133.498 75.4629 133.496 75.4364 133.485Z" fill="black"/>
<path opacity="0.2" d="M75.0459 121.463L75.7794 121.463L76.2015 121.864C76.5814 124.877 77.394 129.427 76.0098 126.974C74.9246 125.051 75.0459 121.463 75.0459 121.463Z" fill="black"/>
<path d="M89.6953 124.404C90.5554 123.618 93.5824 122.754 93.7706 126.657C93.9588 130.56 89.6144 133.311 89.6144 133.311C89.6144 133.311 96.2981 132.391 96.8152 134.533C97.3323 136.676 95.5066 136.037 91.1868 136.037C86.867 136.037 84.5031 135.896 85.1028 133.872C85.7026 131.848 87.7535 126.179 89.6953 124.404Z" fill="white"/>
<path opacity="0.2" d="M89.6953 124.404C90.5554 123.618 93.5824 122.754 93.7706 126.657C93.9588 130.56 89.6144 133.311 89.6144 133.311C89.6144 133.311 96.2981 132.391 96.8152 134.533C97.3323 136.676 95.5066 136.037 91.1868 136.037C86.867 136.037 84.5031 135.896 85.1028 133.872C85.7026 131.848 87.7535 126.179 89.6953 124.404Z" fill="black"/>
<path d="M89.5811 92.3236C89.597 91.974 89.6922 91.6325 89.8595 91.325C90.0268 91.0176 90.2618 90.7522 90.5467 90.5489C91.5123 89.8858 93.389 88.1797 94.2403 89.4619C95.0916 90.7441 94.7293 92.0492 94.6167 92.9093C94.4848 93.9084 94.4831 96.1087 92.1631 96.1087L89.5811 92.3236Z" fill="white"/>
<path opacity="0.2" d="M89.5811 92.3236C89.597 91.974 89.6922 91.6325 89.8595 91.325C90.0268 91.0176 90.2618 90.7522 90.5467 90.5489C91.5123 89.8858 93.389 88.1797 94.2403 89.4619C95.0916 90.7441 94.7293 92.0492 94.6167 92.9093C94.4848 93.9084 94.4831 96.1087 92.1631 96.1087L89.5811 92.3236Z" fill="black"/>
<path d="M84.832 91.9262C84.832 91.9262 85.2189 90.8022 84.5417 89.8155C83.8646 88.8288 82.6984 86.5 81.4444 87.5184C80.1903 88.5368 80.0847 89.9808 79.8913 90.8831C79.6661 91.9385 78.901 94.1617 81.0803 94.9127L84.832 91.9262Z" fill="white"/>
<path opacity="0.2" d="M84.832 91.9262C84.832 91.9262 85.2189 90.8022 84.5417 89.8155C83.8646 88.8288 82.6984 86.5 81.4444 87.5184C80.1903 88.5368 80.0847 89.9808 79.8913 90.8831C79.6661 91.9385 78.901 94.1617 81.0803 94.9127L84.832 91.9262Z" fill="black"/>
<path opacity="0.2" d="M91.7722 95.5213L90.3651 93.4757C90.4179 92.897 90.5867 91.8734 91.1355 91.1768C91.9411 90.1602 93.5381 89.184 93.9796 90.1215C94.4739 91.1522 94.3718 93.5707 91.7722 95.5213Z" fill="black"/>
<path opacity="0.2" d="M81.6661 94.4501L83.6958 92.8319C83.8471 92.2304 84.0476 91.1399 83.7714 90.2587C83.3704 88.9694 82.2096 87.4656 81.4673 88.2729C80.6512 89.1611 79.9072 91.6394 81.6661 94.4501Z" fill="black"/>
<path d="M75.7038 117.968L75.484 117.968C75.4537 117.968 75.424 117.959 75.3979 117.944C75.3718 117.929 75.3501 117.907 75.3349 117.881C75.3197 117.854 75.3115 117.825 75.3111 117.795C75.3107 117.764 75.3182 117.734 75.3327 117.708L75.9536 116.603C76.1489 116.257 76.2844 115.881 76.3546 115.49C77.0722 111.444 77.074 103.137 80.4159 101.741C84.0092 100.239 88.6351 101.132 90.6068 103.188C91.3118 103.967 91.8803 104.859 92.2883 105.827L93.261 106.917C93.2772 106.935 93.2892 106.956 93.296 106.98C93.3027 107.003 93.3041 107.027 93.3001 107.051C93.296 107.075 93.2866 107.098 93.2725 107.118C93.2584 107.137 93.24 107.154 93.2187 107.165L93.129 107.214L93.8326 108.722C93.8455 108.75 93.8497 108.782 93.8448 108.813C93.84 108.844 93.8261 108.873 93.805 108.897C93.784 108.92 93.7565 108.937 93.7261 108.945C93.6957 108.953 93.6637 108.952 93.6338 108.942L93.6022 108.929L93.8906 110.56C93.8961 110.594 93.8901 110.63 93.8737 110.661C93.8572 110.692 93.8312 110.717 93.7995 110.731C93.7677 110.746 93.732 110.75 93.6977 110.743C93.6634 110.736 93.6324 110.718 93.6092 110.692L93.5881 110.667C93.8776 113.026 93.7411 115.417 93.1853 117.727C91.692 123.91 89.4284 134.943 82.1941 134.943C76.9896 134.943 75.6862 127.183 75.7126 121.484C75.687 121.51 75.6542 121.526 75.6186 121.533C75.5831 121.539 75.5465 121.534 75.5139 121.518C75.4812 121.503 75.4541 121.478 75.4362 121.447C75.4182 121.415 75.4104 121.379 75.4136 121.343L75.5701 119.952L75.4206 119.952C75.3933 119.953 75.3662 119.948 75.3414 119.936C75.3166 119.925 75.2947 119.908 75.2777 119.886C75.2606 119.865 75.2487 119.84 75.243 119.813C75.2373 119.786 75.2379 119.759 75.2447 119.732L75.7038 117.968Z" fill="white"/>
<path opacity="0.2" d="M76.618 129.211C76.9698 130.393 78.4596 133.344 80.6037 133.536C82.8568 133.737 84.0898 132.472 85.1891 131.564C87.5512 129.616 88.7473 119.739 88.7473 119.739L89.9785 117.604L91.6319 115.031L93.6 115.383C93.5086 116.169 93.3694 116.949 93.1832 117.718C91.6917 123.91 89.428 134.943 82.1937 134.943C79.2229 134.943 77.5256 132.428 76.618 129.211Z" fill="black"/>
<path d="M91.6266 105.065C91.6266 105.065 91.412 102.386 92.2703 100.991C93.1287 99.5966 93.6018 92.044 87.3349 91.2472C80.8394 90.4205 79.128 96.6452 79.0277 98.7911C78.9275 100.937 79.4833 103.565 79.4833 103.565L87.0746 106.407L91.6266 105.065Z" fill="white"/>
<path d="M79.3651 96.8758C80.1267 94.2252 82.2849 90.6054 87.3346 91.2474C93.3306 92.009 93.1565 98.9531 92.3791 100.775C92.5268 100.022 92.4829 99.0973 91.3572 98.093C89.8568 96.7527 88.0329 98.4149 87.4876 97.1274C86.9424 95.8399 90.3634 96.2022 89.3644 94.8162C88.6854 93.8752 87.7321 94.5242 87.1745 95.1117C87.1065 95.1828 87.0225 95.2369 86.9295 95.2694C86.8366 95.3019 86.7373 95.312 86.6397 95.2988C86.5421 95.2856 86.449 95.2495 86.368 95.1934C86.287 95.1374 86.2205 95.0629 86.1737 94.9763C85.7798 94.2358 84.5696 93.745 83.9013 94.4486C82.7123 95.7115 85.9328 95.3474 85.0991 96.911C84.4922 98.0666 81.0818 95.5831 79.3651 96.8758Z" fill="white"/>
<path opacity="0.2" d="M79.3651 96.8758C80.1267 94.2252 82.2849 90.6054 87.3346 91.2474C93.3306 92.009 93.1565 98.9531 92.3791 100.775C92.5268 100.022 92.4829 99.0973 91.3572 98.093C89.8568 96.7527 88.0329 98.4149 87.4876 97.1274C86.9424 95.8399 90.3634 96.2022 89.3644 94.8162C88.6854 93.8752 87.7321 94.5242 87.1745 95.1117C87.1065 95.1828 87.0225 95.2369 86.9295 95.2694C86.8366 95.3019 86.7373 95.312 86.6397 95.2988C86.5421 95.2856 86.449 95.2495 86.368 95.1934C86.287 95.1374 86.2205 95.0629 86.1737 94.9763C85.7798 94.2358 84.5696 93.745 83.9013 94.4486C82.7123 95.7115 85.9328 95.3474 85.0991 96.911C84.4922 98.0666 81.0818 95.5831 79.3651 96.8758Z" fill="black"/>
<path d="M85.6604 100.988C85.7329 101.08 85.8354 101.144 85.9502 101.168C86.0649 101.193 86.1846 101.176 86.2883 101.122C86.5708 100.979 86.865 100.861 87.1678 100.77C88.2126 100.448 87.5196 98.93 86.3358 99.2466C86.3358 99.2466 85.1187 98.5114 84.7106 99.5984C84.4099 100.423 85.1556 100.325 85.6604 100.988Z" fill="#2B3439"/>
<g opacity="0.6">
<path d="M84.7333 100.207L85.034 100.235C85.034 100.235 85.4544 99.486 85.6444 100.072C85.7464 100.383 85.3841 100.453 85.0235 100.452C84.9138 100.387 84.8157 100.304 84.7333 100.207Z" fill="black"/>
<path d="M86.4978 100.149C86.7793 99.602 87.073 100.409 87.073 100.409L87.6112 100.446C87.5637 100.533 87.4961 100.606 87.4142 100.661C87.0044 100.64 86.2938 100.545 86.4978 100.149Z" fill="black"/>
</g>
<path opacity="0.2" d="M87.6458 105.051C85.9785 105.157 84.3105 104.855 82.786 104.171C82.7276 104.146 82.6624 104.14 82.6004 104.155C82.5384 104.17 82.4831 104.205 82.4431 104.255C82.403 104.304 82.3805 104.366 82.3789 104.43C82.3773 104.493 82.3967 104.556 82.4342 104.608C83.2099 105.644 84.4534 107.082 85.3628 107.07C86.5289 107.058 86.3812 106.563 87.8252 105.584C87.8793 105.549 87.9202 105.497 87.9414 105.436C87.9626 105.375 87.963 105.309 87.9424 105.248C87.9218 105.187 87.8815 105.134 87.8278 105.098C87.7741 105.063 87.7101 105.046 87.6458 105.051Z" fill="black"/>
<path opacity="0.2" d="M87.076 108.185C87.076 108.185 88.8348 111.779 86.58 115.989L87.7074 114.31C87.7306 114.275 87.7628 114.247 87.8006 114.229C87.8384 114.212 87.8803 114.204 87.9218 114.209C87.9633 114.213 88.003 114.228 88.0365 114.253C88.07 114.278 88.096 114.312 88.1119 114.35L88.1629 114.475C88.1699 114.49 88.1815 114.501 88.1959 114.509C88.2103 114.516 88.2268 114.518 88.2426 114.515C88.2584 114.512 88.2726 114.503 88.2831 114.491C88.2935 114.478 88.2995 114.463 88.3001 114.447L88.3001 112.894C88.2988 112.848 88.3109 112.804 88.3349 112.765C88.3589 112.727 88.3938 112.696 88.4351 112.677C88.4765 112.658 88.5224 112.652 88.5673 112.659C88.6121 112.667 88.6538 112.687 88.6871 112.718L88.7575 112.781C88.7693 112.791 88.7841 112.798 88.7997 112.799C88.8153 112.8 88.8308 112.796 88.8439 112.787C88.857 112.779 88.867 112.766 88.8723 112.751C88.8777 112.737 88.8781 112.721 88.8735 112.706L88.2755 111.042C88.2604 110.999 88.2583 110.952 88.2697 110.907C88.281 110.863 88.3052 110.823 88.3392 110.792C88.3733 110.762 88.4156 110.742 88.4609 110.735C88.5062 110.729 88.5525 110.735 88.5939 110.755C88.6078 110.761 88.6233 110.763 88.6381 110.759C88.6529 110.756 88.6664 110.748 88.6765 110.737C88.6867 110.726 88.693 110.712 88.6946 110.696C88.6961 110.681 88.6929 110.666 88.6853 110.653L88.1067 109.7C88.0879 109.669 88.0765 109.635 88.0734 109.599C88.0702 109.564 88.0755 109.528 88.0886 109.494C88.1017 109.461 88.1225 109.431 88.1491 109.407C88.1757 109.384 88.2076 109.366 88.2421 109.357L88.3019 109.341C88.3145 109.337 88.326 109.33 88.3349 109.321C88.3439 109.311 88.3501 109.299 88.3528 109.286C88.3555 109.274 88.3547 109.26 88.3503 109.248C88.346 109.235 88.3384 109.224 88.3283 109.216L87.076 108.185Z" fill="black"/>
<path d="M88.056 96.9109C88.0331 97.3471 88.2495 97.7147 88.5397 97.7287C88.8299 97.7428 89.0832 97.4033 89.1078 96.9671C89.1324 96.5309 88.9143 96.1633 88.6241 96.1475C88.3339 96.1317 88.0788 96.4729 88.056 96.9109Z" fill="#2B3439"/>
<path d="M83.6114 96.3199C83.5868 96.7578 83.8031 97.1237 84.0933 97.1395C84.3836 97.1553 84.6386 96.8141 84.6615 96.3779C84.6843 95.9417 84.4697 95.5741 84.1795 95.5583C83.8893 95.5424 83.6343 95.8837 83.6114 96.3199Z" fill="#2B3439"/>
<path d="M89.0041 101.364C89.0041 101.364 88.1669 102.696 87.3085 102.325C86.4502 101.953 85.7801 101.686 85.7801 101.686C85.7801 101.686 83.9913 102.038 83.4935 101.686C82.9958 101.334 82.5895 100.56 82.5895 100.56C82.5895 100.56 82.2975 103.638 85.4037 104.18C88.2478 104.676 89.0041 101.364 89.0041 101.364Z" fill="white"/>
<path d="M89.0041 101.364C89.0041 101.364 88.1669 102.696 87.3085 102.325C86.4502 101.953 85.7801 101.686 85.7801 101.686C85.7801 101.686 83.9913 102.038 83.4935 101.686C82.9958 101.334 82.5895 100.56 82.5895 100.56C82.5895 100.56 82.2975 103.638 85.4037 104.18C88.2478 104.676 89.0041 101.364 89.0041 101.364Z" fill="#2B3439"/>
<path d="M84.1725 101.837C84.7119 101.836 85.25 101.786 85.7801 101.686C85.7801 101.686 86.2779 101.885 86.9638 102.177C86.8839 102.821 86.9082 103.475 87.0359 104.112C87.3015 105.659 86.1952 106.599 84.9482 106.411C83.7011 106.222 83.3458 104.935 83.7416 103.971C83.9967 103.287 84.1422 102.567 84.1725 101.837Z" fill="white"/>
<path d="M84.1725 101.837C84.7119 101.836 85.25 101.786 85.7801 101.686C85.7801 101.686 86.2779 101.885 86.9638 102.177C86.8839 102.821 86.9082 103.475 87.0359 104.112C87.3015 105.659 86.1952 106.599 84.9482 106.411C83.7011 106.222 83.3458 104.935 83.7416 103.971C83.9967 103.287 84.1422 102.567 84.1725 101.837Z" fill="#FF5652"/>
<path d="M93.289 111.61C93.683 112.855 94.1227 114.185 93.7322 116.814C93.3417 119.444 93.5036 121.377 92.7472 125.343C91.9909 129.309 91.7394 132.584 93.289 133.979C93.289 133.979 95.1077 134.194 95.1622 136.23C95.1634 136.301 95.1503 136.372 95.1238 136.437C95.0972 136.503 95.0578 136.562 95.0077 136.612C94.9577 136.663 94.898 136.702 94.8324 136.729C94.7668 136.755 94.6965 136.768 94.6257 136.767L90.1248 136.767C90.1248 136.767 89.1591 136.66 89.1064 135.265C89.1064 135.265 88.0739 135.129 88.4028 132.906L88.0809 130.331C88.0809 130.331 88.9393 128.936 88.5101 125.45C88.0809 121.964 90.3833 102.404 93.289 111.61Z" fill="white"/>
<path d="M75.2954 136.767L74.8064 136.767C74.8077 136.247 74.8878 135.73 75.0438 135.233C75.0952 135.043 75.1918 134.867 75.3253 134.722C75.5662 134.514 75.918 134.862 75.677 135.073C75.3534 135.348 75.3024 136.16 75.2954 136.767Z" fill="white"/>
<path d="M73.2392 135.233C73.2891 135.042 73.3858 134.866 73.5206 134.722C73.7615 134.514 74.1133 134.862 73.8724 135.073C73.5505 135.349 73.4995 136.162 73.4907 136.769L73.0017 136.769C73.0029 136.248 73.0829 135.73 73.2392 135.233Z" fill="white"/>
<path d="M71.5468 136.064C71.6159 135.769 71.7162 135.483 71.8458 135.21C71.9255 135.018 72.0533 134.849 72.2169 134.72C72.4825 134.544 72.7322 134.973 72.4666 135.147C72.5352 135.101 72.4508 135.163 72.4262 135.2C72.3697 135.283 72.3192 135.37 72.2749 135.46C72.1049 135.828 71.9865 136.217 71.9232 136.618C71.7307 136.489 71.5958 136.29 71.5468 136.064Z" fill="white"/>
<path d="M91.827 136.767L91.3398 136.767C91.411 136.162 91.2878 135.551 90.9881 135.021C90.8122 134.75 91.2484 134.493 91.4155 134.771C91.7584 135.377 91.9024 136.075 91.827 136.767Z" fill="white"/>
<path d="M93.7407 136.767C93.7399 136.633 93.7293 136.499 93.7091 136.366C93.6134 135.824 93.3699 135.319 93.0055 134.906C92.798 134.665 93.148 134.313 93.3573 134.554C93.9041 135.163 94.2159 135.947 94.2367 136.765L93.7407 136.767Z" fill="white"/>
<g opacity="0.5">
<path opacity="0.2" d="M75.2945 136.767L74.8055 136.767C74.8069 136.247 74.8869 135.73 75.043 135.233C75.0944 135.043 75.1909 134.867 75.3244 134.722C75.5654 134.514 75.9172 134.862 75.6762 135.073C75.3526 135.348 75.3015 136.16 75.2945 136.767Z" fill="black"/>
<path opacity="0.2" d="M73.2393 135.233C73.2892 135.042 73.3859 134.866 73.5207 134.722C73.7617 134.514 74.1134 134.862 73.8725 135.073C73.5506 135.349 73.4996 136.162 73.4908 136.769L73.0018 136.769C73.003 136.248 73.083 135.73 73.2393 135.233Z" fill="black"/>
<path opacity="0.2" d="M71.5468 136.064C71.6159 135.769 71.7162 135.483 71.8458 135.21C71.9255 135.018 72.0533 134.849 72.2169 134.72C72.4825 134.544 72.7322 134.973 72.4666 135.147C72.5352 135.101 72.4508 135.163 72.4262 135.2C72.3697 135.283 72.3192 135.37 72.2749 135.46C72.1049 135.828 71.9865 136.217 71.9232 136.618C71.7307 136.489 71.5958 136.29 71.5468 136.064Z" fill="black"/>
<g opacity="0.2">
<path d="M91.8272 136.767L91.34 136.767C91.4112 136.162 91.288 135.551 90.9882 135.021C90.8123 134.75 91.2485 134.493 91.4156 134.771C91.7586 135.377 91.9025 136.075 91.8272 136.767Z" fill="black"/>
<path d="M93.0018 134.906C92.7943 134.665 93.1443 134.313 93.3536 134.554C93.9004 135.163 94.2122 135.947 94.2331 136.765L93.7353 136.765C93.7344 136.631 93.7239 136.497 93.7036 136.364" fill="black"/>
</g>
</g>
<path opacity="0.2" d="M91.9611 133.865C91.464 133.69 90.9253 133.67 90.4168 133.809C90.3911 133.815 90.3641 133.812 90.3403 133.8C90.3165 133.789 90.2973 133.77 90.2858 133.746C90.2744 133.722 90.2713 133.695 90.2772 133.67C90.2831 133.644 90.2976 133.621 90.3183 133.605C90.7088 133.309 91.356 133.04 92.0772 133.668C92.1033 133.683 92.1222 133.708 92.1298 133.738C92.1374 133.767 92.133 133.798 92.1176 133.824C92.1022 133.851 92.0771 133.869 92.0477 133.877C92.0184 133.885 91.9872 133.88 91.9611 133.865Z" fill="black"/>
<path d="M74.7022 92.3799C74.7022 92.3799 74.2731 91.3333 74.113 91.4143C73.9529 91.4952 74.113 92.7827 74.113 92.7827L74.7022 92.3799Z" fill="white"/>
<path d="M76.4196 90.2569C76.3199 90.0557 76.2602 89.8371 76.2437 89.6132C76.243 89.5829 76.2334 89.5535 76.216 89.5287C76.1986 89.5039 76.1742 89.4848 76.1459 89.4739C76.1177 89.463 76.0868 89.4607 76.0573 89.4673C76.0277 89.474 76.0008 89.4892 75.9799 89.5112C75.8841 89.6093 75.8096 89.7262 75.7611 89.8546C75.7127 89.9829 75.6914 90.1199 75.6985 90.2569L76.4196 90.2569Z" fill="white"/>
<path d="M77.8982 89.9192C77.7829 89.7629 77.7152 89.5766 77.703 89.3828C77.7004 89.3523 77.6887 89.3234 77.6693 89.2998C77.65 89.2761 77.624 89.2589 77.5947 89.2503C77.5653 89.2418 77.5341 89.2423 77.5051 89.2518C77.4761 89.2613 77.4506 89.2794 77.4321 89.3036C77.3351 89.426 77.2666 89.5683 77.2313 89.7204C77.196 89.8725 77.1949 90.0305 77.2281 90.1831L77.8982 89.9192Z" fill="white"/>
<path d="M79.9067 91.4108C79.9056 91.1875 79.9665 90.9683 80.0826 90.7776C80.0993 90.7527 80.1079 90.7233 80.1073 90.6933C80.1067 90.6633 80.0969 90.6343 80.0793 90.6101C80.0616 90.5859 80.0369 90.5677 80.0085 90.558C79.9802 90.5483 79.9495 90.5476 79.9207 90.5559C79.738 90.6053 79.5793 90.719 79.4736 90.876C79.368 91.033 79.3225 91.2229 79.3456 91.4108L79.9067 91.4108Z" fill="white"/>
<g opacity="0.5">
<path d="M74.7022 92.3798C74.7022 92.3798 74.2731 91.3332 74.113 91.4141C73.9529 91.495 74.113 92.7825 74.113 92.7825L74.7022 92.3798Z" fill="white"/>
<path d="M76.4186 90.2568C76.3189 90.0556 76.2592 89.837 76.2428 89.613C76.2421 89.5828 76.2324 89.5534 76.215 89.5286C76.1976 89.5038 76.1732 89.4847 76.145 89.4738C76.1167 89.4629 76.0858 89.4606 76.0563 89.4672C76.0267 89.4738 75.9998 89.4891 75.9789 89.511C75.8831 89.6092 75.8086 89.7261 75.7602 89.8545C75.7117 89.9828 75.6904 90.1198 75.6975 90.2568L76.4186 90.2568Z" fill="white"/>
<path d="M77.8981 89.9191C77.7828 89.7627 77.715 89.5765 77.7028 89.3827C77.7003 89.3522 77.6885 89.3233 77.6692 89.2997C77.6499 89.276 77.6238 89.2588 77.5945 89.2502C77.5652 89.2416 77.534 89.2422 77.505 89.2517C77.476 89.2612 77.4505 89.2792 77.432 89.3035C77.335 89.4259 77.2664 89.5682 77.2312 89.7203C77.1959 89.8724 77.1948 90.0304 77.2279 90.1829L77.8981 89.9191Z" fill="white"/>
<path d="M79.9067 91.4106C79.9056 91.1874 79.9665 90.9682 80.0826 90.7774C80.0993 90.7526 80.1079 90.7231 80.1073 90.6932C80.1067 90.6632 80.0969 90.6342 80.0793 90.6099C80.0616 90.5857 80.0369 90.5676 80.0085 90.5579C79.9802 90.5482 79.9495 90.5475 79.9207 90.5558C79.738 90.6052 79.5793 90.7189 79.4736 90.8759C79.368 91.0329 79.3225 91.2228 79.3456 91.4106L79.9067 91.4106Z" fill="white"/>
</g>
<g opacity="0.5">
<path d="M74.7022 92.3798C74.7022 92.3798 74.2731 91.3332 74.113 91.4141C73.9529 91.495 74.113 92.7825 74.113 92.7825L74.7022 92.3798Z" fill="black"/>
<path d="M76.4186 90.2568C76.3189 90.0556 76.2592 89.837 76.2428 89.613C76.2421 89.5828 76.2324 89.5534 76.215 89.5286C76.1976 89.5038 76.1732 89.4847 76.145 89.4738C76.1167 89.4629 76.0858 89.4606 76.0563 89.4672C76.0267 89.4738 75.9998 89.4891 75.9789 89.511C75.8831 89.6092 75.8086 89.7261 75.7602 89.8545C75.7117 89.9828 75.6904 90.1198 75.6975 90.2568L76.4186 90.2568Z" fill="black"/>
<path d="M77.8981 89.9191C77.7828 89.7627 77.715 89.5765 77.7028 89.3827C77.7003 89.3522 77.6885 89.3233 77.6692 89.2997C77.6499 89.276 77.6238 89.2588 77.5945 89.2502C77.5652 89.2416 77.534 89.2422 77.505 89.2517C77.476 89.2612 77.4505 89.2792 77.432 89.3035C77.335 89.4259 77.2664 89.5682 77.2312 89.7203C77.1959 89.8724 77.1948 90.0304 77.2279 90.1829L77.8981 89.9191Z" fill="black"/>
<path d="M79.9067 91.4106C79.9056 91.1874 79.9665 90.9682 80.0826 90.7774C80.0993 90.7526 80.1079 90.7231 80.1073 90.6932C80.1067 90.6632 80.0969 90.6342 80.0793 90.6099C80.0616 90.5857 80.0369 90.5676 80.0085 90.5579C79.9802 90.5482 79.9495 90.5475 79.9207 90.5558C79.738 90.6052 79.5793 90.7189 79.4736 90.8759C79.368 91.0329 79.3225 91.2228 79.3456 91.4106L79.9067 91.4106Z" fill="black"/>
</g>
<path opacity="0.2" d="M91.7585 102.46C91.6466 103.102 91.5948 103.752 91.6037 104.404C91.286 104.508 90.9631 104.596 90.6363 104.667C90.5623 104.684 90.4848 104.676 90.4162 104.643C90.3476 104.611 90.2918 104.556 90.2578 104.489C90.2238 104.421 90.2135 104.343 90.2285 104.269C90.2436 104.195 90.2831 104.128 90.3408 104.078C90.8958 103.617 91.3743 103.071 91.7585 102.46Z" fill="black"/>
<path opacity="0.2" d="M79.2988 102.583C79.1657 101.777 79.0753 100.965 79.028 100.149C79.4333 101.017 79.9669 101.819 80.611 102.529C80.6614 102.586 80.6911 102.658 80.6953 102.735C80.6994 102.811 80.6778 102.886 80.6339 102.948C80.59 103.011 80.5264 103.057 80.4533 103.078C80.3802 103.1 80.3019 103.097 80.231 103.069C80.0121 102.983 79.7988 102.884 79.5926 102.771C79.7245 103.862 79.9672 105.492 80.3067 106.273C80.8431 107.505 80.8343 108.286 80.8343 108.286L79.3076 108.446L77.7968 105.872C78.1485 104.53 78.6234 103.368 79.2988 102.583Z" fill="black"/>
<path opacity="0.2" d="M76.9575 110.657C78.0128 110.317 79.3654 110.329 79.3654 110.329L81.2157 111.46C81.2157 111.46 82.25 115.982 79.6556 116.948C78.8729 117.24 76.8959 116.405 76.6444 113.404C76.7411 112.544 76.8414 111.61 76.9575 110.657Z" fill="black"/>
<path d="M80.3085 107.158C80.3085 107.158 81.6259 108.97 81.0877 112.232C81.0153 112.653 80.7888 113.032 80.4521 113.295C80.1155 113.558 79.6931 113.686 79.2672 113.654C78.1644 113.574 76.7714 113.369 76.3387 112.845C75.3036 111.538 74.7881 109.895 74.8911 108.231C74.9984 106.14 75.1057 100.077 75.1057 100.077C75.1057 100.077 75.4082 97.3963 74.8806 96.0015C74.3529 94.6067 73.4963 92.7282 74.0855 92.2463C74.1812 92.1662 74.292 92.1064 74.4115 92.0704C74.5309 92.0344 74.6564 92.023 74.7803 92.037C74.8409 92.0414 74.9017 92.0316 74.9579 92.0084C75.0141 91.9852 75.0641 91.9491 75.1039 91.9032C75.1437 91.8572 75.1722 91.8026 75.1872 91.7437C75.2021 91.6848 75.2032 91.6232 75.1901 91.5638C75.0723 91.0098 75.0054 90.2922 75.3818 90.1004C75.6715 89.9725 75.9979 89.9543 76.3 90.0494C76.4296 90.0858 76.5662 90.0887 76.6973 90.058C76.8283 90.0272 76.9494 89.9638 77.0493 89.8736C77.2251 89.7135 77.5189 89.6097 78.0026 89.8419C78.1862 89.9292 78.3461 90.0595 78.4686 90.2218C78.5911 90.3841 78.6726 90.5736 78.7061 90.7741C78.7196 90.8355 78.7471 90.8929 78.7865 90.9419C78.8259 90.9909 78.8762 91.03 78.9333 91.0562C78.9904 91.0825 79.0528 91.0951 79.1156 91.0932C79.1785 91.0912 79.24 91.0747 79.2953 91.045C79.4262 90.9589 79.5819 90.9188 79.7381 90.9313C79.8942 90.9437 80.0417 91.0078 80.1572 91.1136C80.801 91.7028 80.4791 92.9903 80.0499 93.9014C79.6207 94.8125 79.8881 99.0021 79.3464 100.553C78.8046 102.105 79.1283 105.925 80.3085 107.158Z" fill="white"/>
<path d="M79.0945 92.4028C79.0904 92.4717 79.1005 92.5408 79.1241 92.6056C79.1477 92.6705 79.1842 92.7299 79.2316 92.7801C79.279 92.8304 79.3361 92.8704 79.3995 92.8978C79.4628 92.9251 79.5312 92.9392 79.6002 92.9392C79.6692 92.9392 79.7375 92.9251 79.8009 92.8978C79.8643 92.8704 79.9214 92.8304 79.9688 92.7801C80.0161 92.7299 80.0527 92.6705 80.0763 92.6056C80.0999 92.5408 80.1099 92.4717 80.1059 92.4028C80.1059 92.1232 79.879 91.7362 79.5993 91.7362C79.3196 91.7362 79.0945 92.1232 79.0945 92.4028Z" fill="#2B3439"/>
<path d="M77.4093 91.0168C77.4311 91.0916 77.4686 91.161 77.5192 91.2203C77.5698 91.2795 77.6324 91.3274 77.7029 91.3606C77.7734 91.3939 77.8502 91.4118 77.9281 91.4132C78.0061 91.4145 78.0834 91.3993 78.155 91.3686C78.4259 91.2701 78.5297 91.0397 78.389 90.6545C78.2483 90.2693 77.9141 90.0406 77.6432 90.1409C77.3723 90.2411 77.2686 90.6316 77.4093 91.0168Z" fill="#2B3439"/>
<path d="M74.5654 93.6129C74.8855 93.8662 75.2689 93.678 75.5011 93.379C75.7333 93.08 75.7421 92.7845 75.422 92.5294C75.1018 92.2744 74.6498 92.153 74.4141 92.4521C74.301 92.6331 74.2542 92.8479 74.2818 93.0596C74.3094 93.2713 74.4096 93.4669 74.5654 93.6129Z" fill="#2B3439"/>
<path d="M75.7072 91.4371C75.7829 91.9402 76.1171 92.1178 76.4829 92.0633C76.8488 92.0088 76.949 91.7379 76.8716 91.2349C76.7942 90.7318 76.4354 90.3713 76.0696 90.4275C75.7037 90.4838 75.6299 90.9359 75.7072 91.4371Z" fill="#2B3439"/>
<path opacity="0.3" d="M77.7222 107.067C78.8285 106.643 78.519 104.676 78.519 102.397C78.519 97.7481 79.6112 95.3929 77.3757 95.5161C75.1402 95.6392 76.1972 100.028 76.1111 102.46C76.0249 104.893 75.3794 107.965 77.7222 107.067Z" fill="white"/>
<path d="M77.2882 99.9184C77.4905 99.9307 78.0322 100.107 78.0322 99.5965C78.0322 99.0865 76.7728 99.1938 76.7183 99.5965C76.6638 99.9993 77.1246 99.9079 77.2882 99.9184Z" fill="#2B3439"/>
<path d="M78.989 93.7691C78.9539 93.6103 78.8648 93.4663 78.7334 93.3564C78.6063 93.2456 78.4415 93.1743 78.2625 93.1527C78.1104 93.1378 77.9553 93.1676 77.8207 93.2375C77.6861 93.3074 77.5795 93.4135 77.5172 93.5398C77.4597 93.4652 77.3838 93.4035 77.295 93.3591C77.212 93.3192 77.1202 93.2947 77.025 93.287C76.9299 93.2793 76.8333 93.2886 76.7409 93.3142C76.5676 93.3686 76.416 93.469 76.3071 93.6013C76.1906 93.7325 76.1215 93.8909 76.1093 94.0549C76.0974 94.2635 76.1611 94.4675 76.2911 94.6372C76.4401 94.8079 76.6345 94.943 76.858 95.0311C77.2216 95.1846 77.6927 95.3762 77.6927 95.3762C77.6927 95.3762 78.0611 95.0847 78.4046 94.866C78.612 94.739 78.7837 94.5709 78.9053 94.3757C79.0049 94.1842 79.0342 93.9717 78.989 93.7691Z" fill="#2B3439"/>
<path d="M124.989 112.469L111.13 101.5L97.2712 112.469L97.2712 131.945L124.989 131.945L124.989 112.469Z" fill="#0E6975"/>
<path opacity="0.3" d="M124.989 112.469L111.13 101.5L97.2712 112.469L97.2712 131.945L124.989 131.945L124.989 112.469Z" fill="black"/>
<path d="M126.082 114.035L111.13 102.2L96.1783 114.035C96.0382 114.145 95.8598 114.196 95.6824 114.175C95.505 114.155 95.343 114.065 95.2321 113.925C95.1213 113.784 95.0707 113.606 95.0913 113.429C95.1119 113.251 95.2022 113.089 95.3422 112.978L111.13 100.481L126.918 112.978C126.987 113.033 127.045 113.101 127.088 113.178C127.132 113.256 127.159 113.341 127.169 113.429C127.18 113.516 127.172 113.606 127.148 113.691C127.124 113.776 127.083 113.855 127.028 113.925C126.917 114.065 126.755 114.155 126.578 114.175C126.4 114.196 126.222 114.145 126.082 114.035Z" fill="#0E6975"/>
<g opacity="0.3">
<path d="M126.082 114.035L111.13 102.2L96.1783 114.035C96.0382 114.145 95.8598 114.196 95.6824 114.175C95.505 114.155 95.343 114.065 95.2321 113.925C95.1213 113.784 95.0707 113.606 95.0913 113.429C95.1119 113.251 95.2022 113.089 95.3422 112.978L111.13 100.481L126.918 112.978C126.987 113.033 127.045 113.101 127.088 113.178C127.132 113.256 127.159 113.341 127.169 113.429C127.18 113.516 127.172 113.606 127.148 113.691C127.124 113.776 127.083 113.855 127.028 113.925C126.917 114.065 126.755 114.155 126.578 114.175C126.4 114.196 126.222 114.145 126.082 114.035Z" fill="white"/>
</g>
<path d="M111.13 112.623C109.514 112.623 107.964 113.265 106.821 114.408C105.678 115.551 105.036 117.101 105.036 118.717L105.036 131.944L117.226 131.944L117.226 118.717C117.226 117.917 117.069 117.124 116.762 116.385C116.456 115.645 116.007 114.973 115.441 114.407C114.875 113.841 114.203 113.392 113.463 113.086C112.723 112.78 111.931 112.623 111.13 112.623Z" fill="#0E6975"/>
<path opacity="0.5" d="M111.13 112.623C109.514 112.623 107.964 113.265 106.821 114.408C105.678 115.551 105.036 117.101 105.036 118.717L105.036 131.944L117.226 131.944L117.226 118.717C117.226 117.917 117.069 117.124 116.762 116.385C116.456 115.645 116.007 114.973 115.441 114.407C114.875 113.841 114.203 113.392 113.463 113.086C112.723 112.78 111.931 112.623 111.13 112.623Z" fill="black"/>
<path d="M112.659 111.705C112.659 111.705 117.8 115.067 115.445 109.889C115.445 109.889 116.764 106.442 114.924 106.814C113.084 107.187 112.507 108.357 112.507 108.357L108.34 108.295C108.34 108.295 103.201 104.936 105.557 110.111C105.557 110.111 104.235 113.559 106.075 113.186C107.915 112.813 108.492 111.644 108.492 111.644L112.659 111.705Z" fill="#56969E"/>
<path d="M112.871 111C112.807 111 112.754 110.978 112.712 110.934C112.671 110.888 112.651 110.814 112.651 110.712L112.651 109.686C112.651 109.664 112.64 109.653 112.618 109.653L112.539 109.653C112.51 109.653 112.495 109.642 112.495 109.62C112.495 109.605 112.503 109.593 112.52 109.582C112.58 109.54 112.629 109.495 112.665 109.447C112.702 109.398 112.734 109.331 112.761 109.247C112.774 109.209 112.789 109.189 112.808 109.189C112.828 109.189 112.838 109.204 112.838 109.233L112.838 109.538C112.838 109.563 112.851 109.576 112.876 109.576L113.055 109.576C113.084 109.576 113.099 109.589 113.099 109.615C113.099 109.64 113.084 109.653 113.055 109.653L112.876 109.653C112.851 109.653 112.838 109.666 112.838 109.691L112.838 110.715C112.838 110.755 112.844 110.787 112.857 110.811C112.87 110.833 112.894 110.844 112.928 110.844C112.967 110.844 112.998 110.824 113.022 110.786C113.047 110.748 113.064 110.685 113.071 110.599C113.075 110.574 113.087 110.561 113.107 110.561C113.129 110.561 113.14 110.575 113.14 110.602C113.134 110.743 113.105 110.845 113.052 110.907C113.001 110.969 112.94 111 112.871 111Z" fill="#0A4A52"/>
<path d="M112.019 111C111.931 111 111.853 110.971 111.783 110.912C111.714 110.854 111.658 110.771 111.616 110.665C111.576 110.557 111.556 110.433 111.556 110.292C111.556 110.148 111.577 110.021 111.619 109.911C111.661 109.801 111.718 109.715 111.791 109.653C111.865 109.591 111.946 109.56 112.036 109.56C112.144 109.56 112.23 109.605 112.296 109.694C112.364 109.782 112.398 109.925 112.398 110.125C112.398 110.185 112.375 110.215 112.329 110.215L111.808 110.215C111.771 110.215 111.753 110.236 111.753 110.278C111.753 110.472 111.781 110.618 111.838 110.715C111.895 110.812 111.967 110.86 112.055 110.86C112.124 110.86 112.181 110.835 112.225 110.786C112.269 110.737 112.305 110.653 112.332 110.536C112.337 110.516 112.349 110.506 112.368 110.506C112.39 110.506 112.398 110.524 112.392 110.561C112.363 110.724 112.316 110.838 112.252 110.904C112.188 110.968 112.111 111 112.019 111Z" fill="#0A4A52"/>
<path d="M110.356 110.975C110.329 110.975 110.315 110.965 110.315 110.945C110.315 110.929 110.327 110.918 110.35 110.912L110.414 110.901C110.452 110.894 110.477 110.884 110.488 110.871C110.5 110.858 110.507 110.833 110.507 110.794L110.507 109.181C110.507 109.143 110.5 109.117 110.488 109.104C110.477 109.091 110.452 109.081 110.414 109.074L110.35 109.063C110.327 109.058 110.315 109.047 110.315 109.03C110.315 109.01 110.329 109 110.356 109L110.929 109C111.037 109 111.132 109.024 111.215 109.071C111.297 109.117 111.361 109.181 111.407 109.263C111.452 109.346 111.475 109.441 111.475 109.549C111.475 109.653 111.452 109.745 111.407 109.826C111.361 109.906 111.298 109.969 111.217 110.015C111.137 110.059 111.044 110.081 110.938 110.081L110.74 110.081C110.714 110.081 110.702 110.094 110.702 110.119L110.702 110.783C110.702 110.822 110.709 110.848 110.724 110.863C110.738 110.876 110.771 110.887 110.822 110.896L110.924 110.912C110.944 110.916 110.954 110.926 110.954 110.942C110.954 110.964 110.94 110.975 110.913 110.975L110.356 110.975ZM110.702 109.861C110.702 109.962 110.763 110.012 110.885 110.012C111.004 110.012 111.098 109.97 111.165 109.886C111.235 109.802 111.27 109.687 111.27 109.54C111.27 109.39 111.235 109.274 111.165 109.192C111.096 109.11 110.997 109.069 110.869 109.069C110.757 109.069 110.702 109.105 110.702 109.178L110.702 109.861Z" fill="#0A4A52"/>
<path d="M109.814 111C109.726 111 109.648 110.971 109.578 110.912C109.509 110.854 109.453 110.771 109.411 110.665C109.371 110.557 109.351 110.433 109.351 110.292C109.351 110.148 109.372 110.021 109.414 109.911C109.456 109.801 109.513 109.715 109.587 109.653C109.66 109.591 109.741 109.56 109.831 109.56C109.939 109.56 110.025 109.605 110.091 109.694C110.159 109.782 110.193 109.925 110.193 110.125C110.193 110.185 110.17 110.215 110.124 110.215L109.603 110.215C109.566 110.215 109.548 110.236 109.548 110.278C109.548 110.472 109.576 110.618 109.633 110.715C109.69 110.812 109.762 110.86 109.85 110.86C109.919 110.86 109.976 110.835 110.02 110.786C110.064 110.737 110.1 110.653 110.127 110.536C110.132 110.516 110.144 110.506 110.163 110.506C110.185 110.506 110.193 110.524 110.187 110.561C110.158 110.724 110.111 110.838 110.047 110.904C109.983 110.968 109.906 111 109.814 111Z" fill="#0A4A52"/>
<path d="M109.182 111C109.023 111 108.922 110.896 108.878 110.687L108.815 110.383C108.795 110.284 108.772 110.209 108.746 110.158C108.722 110.107 108.689 110.072 108.645 110.053C108.603 110.035 108.544 110.026 108.469 110.026C108.444 110.026 108.423 110.033 108.409 110.048C108.394 110.061 108.387 110.077 108.387 110.097L108.387 110.783C108.387 110.822 108.394 110.848 108.409 110.863C108.423 110.876 108.456 110.887 108.508 110.896L108.609 110.912C108.629 110.916 108.639 110.926 108.639 110.942C108.639 110.964 108.626 110.975 108.598 110.975L108.041 110.975C108.014 110.975 108 110.965 108 110.945C108 110.929 108.012 110.918 108.036 110.912L108.099 110.901C108.137 110.894 108.162 110.884 108.173 110.871C108.186 110.858 108.192 110.833 108.192 110.794L108.192 109.181C108.192 109.143 108.186 109.117 108.173 109.104C108.162 109.091 108.137 109.081 108.099 109.074L108.036 109.063C108.012 109.058 108 109.047 108 109.03C108 109.01 108.014 109 108.041 109L108.598 109C108.706 109 108.802 109.021 108.886 109.063C108.97 109.105 109.036 109.164 109.084 109.239C109.131 109.312 109.155 109.397 109.155 109.494C109.155 109.609 109.12 109.713 109.051 109.807C108.981 109.898 108.893 109.963 108.787 110.001C108.775 110.005 108.767 110.011 108.765 110.021C108.765 110.028 108.772 110.034 108.785 110.04C108.843 110.067 108.889 110.106 108.922 110.155C108.957 110.204 108.983 110.27 109.001 110.353L109.062 110.632C109.082 110.727 109.106 110.795 109.133 110.835C109.16 110.876 109.195 110.896 109.237 110.896C109.252 110.896 109.265 110.894 109.276 110.89C109.289 110.885 109.304 110.876 109.322 110.863C109.337 110.854 109.351 110.852 109.364 110.857C109.376 110.861 109.383 110.87 109.383 110.885C109.383 110.916 109.363 110.943 109.322 110.967C109.282 110.989 109.235 111 109.182 111ZM108.571 109.957C108.695 109.957 108.789 109.916 108.853 109.834C108.917 109.75 108.949 109.638 108.949 109.499C108.949 109.364 108.912 109.259 108.837 109.184C108.764 109.107 108.662 109.069 108.532 109.069C108.435 109.069 108.387 109.105 108.387 109.178L108.387 109.807C108.387 109.907 108.448 109.957 108.571 109.957Z" fill="#0A4A52"/>
<path d="M109.935 109.994C109.955 109.933 109.923 109.868 109.863 109.847C109.803 109.827 109.737 109.859 109.717 109.919C109.696 109.979 109.728 110.045 109.788 110.065C109.849 110.086 109.914 110.054 109.935 109.994Z" fill="#4F97CA"/>
<path d="M109.705 109.843C109.709 109.85 109.71 109.858 109.709 109.866C109.708 109.874 109.704 109.881 109.699 109.887C109.694 109.893 109.687 109.897 109.679 109.899C109.672 109.901 109.664 109.9 109.656 109.898C109.649 109.895 109.642 109.89 109.638 109.884C109.633 109.878 109.63 109.87 109.63 109.863C109.629 109.855 109.631 109.847 109.635 109.84C109.639 109.833 109.645 109.828 109.652 109.825C109.657 109.822 109.662 109.821 109.667 109.821C109.672 109.82 109.678 109.821 109.683 109.823C109.687 109.824 109.692 109.827 109.696 109.831C109.7 109.834 109.703 109.838 109.705 109.843Z" fill="#4F97CA"/>
<path d="M109.891 109.754C109.894 109.761 109.896 109.769 109.894 109.776C109.893 109.784 109.89 109.791 109.885 109.797C109.88 109.803 109.873 109.807 109.865 109.809C109.858 109.811 109.85 109.811 109.842 109.808C109.835 109.806 109.828 109.801 109.824 109.795C109.819 109.788 109.816 109.781 109.816 109.773C109.815 109.765 109.817 109.758 109.821 109.751C109.825 109.744 109.831 109.739 109.838 109.735C109.843 109.733 109.848 109.732 109.853 109.731C109.858 109.731 109.863 109.732 109.868 109.734C109.873 109.735 109.878 109.738 109.882 109.741C109.886 109.745 109.889 109.749 109.891 109.754Z" fill="#4F97CA"/>
<path d="M109.784 109.77C109.788 109.777 109.789 109.785 109.788 109.793C109.787 109.801 109.783 109.808 109.778 109.814C109.773 109.82 109.766 109.824 109.758 109.826C109.751 109.828 109.743 109.828 109.735 109.825C109.728 109.823 109.721 109.818 109.717 109.812C109.712 109.805 109.709 109.798 109.709 109.79C109.708 109.782 109.71 109.774 109.714 109.768C109.718 109.761 109.724 109.755 109.731 109.752C109.736 109.75 109.741 109.748 109.746 109.748C109.751 109.748 109.757 109.748 109.762 109.75C109.766 109.752 109.771 109.755 109.775 109.758C109.779 109.761 109.782 109.766 109.784 109.77Z" fill="#4F97CA"/>
<path d="M112.162 109.994C112.183 109.933 112.15 109.868 112.09 109.847C112.03 109.827 111.965 109.859 111.944 109.919C111.924 109.979 111.956 110.045 112.016 110.065C112.076 110.086 112.141 110.054 112.162 109.994Z" fill="#4F97CA"/>
<path d="M111.933 109.843C111.936 109.85 111.937 109.858 111.936 109.866C111.935 109.874 111.932 109.881 111.926 109.887C111.921 109.893 111.914 109.897 111.907 109.899C111.899 109.901 111.891 109.9 111.884 109.898C111.876 109.895 111.87 109.89 111.865 109.884C111.86 109.878 111.858 109.87 111.857 109.863C111.857 109.855 111.859 109.847 111.863 109.84C111.867 109.833 111.872 109.828 111.879 109.825C111.884 109.822 111.889 109.821 111.894 109.821C111.9 109.82 111.905 109.821 111.91 109.823C111.915 109.824 111.919 109.827 111.923 109.831C111.927 109.834 111.93 109.838 111.933 109.843Z" fill="#4F97CA"/>
<path d="M112.118 109.754C112.122 109.761 112.123 109.769 112.122 109.776C112.121 109.784 112.117 109.791 112.112 109.797C112.107 109.803 112.1 109.807 112.092 109.809C112.085 109.811 112.077 109.811 112.07 109.808C112.062 109.806 112.056 109.801 112.051 109.795C112.046 109.788 112.044 109.781 112.043 109.773C112.043 109.765 112.045 109.758 112.049 109.751C112.053 109.744 112.058 109.739 112.065 109.735C112.07 109.733 112.075 109.732 112.08 109.731C112.086 109.731 112.091 109.732 112.096 109.734C112.101 109.735 112.105 109.738 112.109 109.741C112.113 109.745 112.116 109.749 112.118 109.754Z" fill="#4F97CA"/>
<path d="M112.012 109.77C112.015 109.777 112.016 109.785 112.015 109.793C112.014 109.801 112.011 109.808 112.005 109.814C112 109.82 111.993 109.824 111.986 109.826C111.978 109.828 111.97 109.828 111.963 109.825C111.955 109.823 111.949 109.818 111.944 109.812C111.939 109.805 111.937 109.798 111.936 109.79C111.936 109.782 111.938 109.774 111.942 109.768C111.946 109.761 111.952 109.755 111.959 109.752C111.963 109.75 111.968 109.748 111.974 109.748C111.979 109.748 111.984 109.748 111.989 109.75C111.994 109.752 111.998 109.755 112.002 109.758C112.006 109.761 112.009 109.766 112.012 109.77Z" fill="#4F97CA"/>
</svg>
